<?xml version="1.0" standalone="no"?>
<!DOCTYPE svg PUBLIC "-//W3C//DTD SVG 1.1//EN" "http://www.w3.org/Graphics/SVG/1.1/DTD/svg11.dtd" >
<!--
2013-9-30: Created.
-->
<svg>
<metadata>
Created by iconfont
</metadata>
<defs>

<font id="iconfont" horiz-adv-x="1024" >
  <font-face
    font-family="iconfont"
    font-weight="500"
    font-stretch="normal"
    units-per-em="1024"
    ascent="896"
    descent="-128"
  />
    <missing-glyph />
    
    <glyph glyph-name="liwu" unicode="&#58964;" d="M892.37417 655.910876l-132.471081-0.301875c26.78504 18.777669 41.695634 33.331129 44.445258 36.09201 24.994254 23.489994 39.318494 51.354622 41.432645 80.610946 1.965771 27.185152-6.886851 53.847395-24.926716 75.073836C800.420899 871.428372 770.994706 885.799684 737.995127 887.850389c-35.577287 2.215458-72.176856-10.187013-105.915261-35.861766-8.100492-4.860704-42.739407-27.471678-88.884376-83.773985-53.851489-62.161758-52.448536-166.171624-52.252061-174.288488l0-256.93786L103.228059 336.98829 103.228059 581.348694c0 16.883529 13.734816 30.619368 30.614252 30.619368l212.876342-0.040932c0.002047 0 0.002047 0 0.004093 0 10.855232 0 20.276812 7.868201 21.912056 18.600637 1.630127 10.69969-4.585435 20.926612-14.891152 24.193005-2.038426 0.756223-37.338397 14.354939-102.273315 69.477374-16.180518 13.734816-25.430182 30.072923-26.748201 47.24707-1.171686 15.263635 3.933589 30.772864 14.375405 43.672662 24.24417 29.952172 75.073836 43.104727 129.390929 1.202385 1.25969-0.972141 1.442862-1.222851 2.713808-1.817392 1.942235-1.304715 11.269671-7.966439 33.893948-29.612435 5.225001-5.411243 38.312584-38.517245 72.0295-45.614897 11.867282-2.495844 23.526833 5.099135 26.027793 16.97358 2.498914 11.874445-5.099135 23.526833-16.974603 26.02677-16.128329 3.39533-39.035038 22.26612-49.666166 33.342386-0.226151 0.237407-0.458441 0.469698-0.695848 0.696872-24.559349 23.520693-36.359093 32.311917-41.461297 35.546587-73.9175 56.342216-151.147442 38.181601-189.413977-9.096169-17.532305-21.660322-26.067702-48.182372-24.034393-74.682933 2.235924-29.129434 16.801664-55.888891 42.1244-77.385485 16.330944-13.862729 30.978549-25.335015 43.928488-34.81083l-133.11474 0.025583c-41.114396 0-74.563206-33.44881-74.563206-74.563206l0-620.857267c0-41.114396 33.44881-74.562183 74.563206-74.562183l758.576885 0c41.114396 0 74.562183 33.44881 74.562183 74.562183L966.984449 581.348694C966.986495 622.46309 933.537685 655.9119 892.37417 655.910876zM534.877033 594.860429c-0.007163 0.234337-0.630357 23.76117 4.460592 54.044894 4.556783 27.106358 14.716166 64.84896 37.229926 90.716094 0.145309 0.166799 0.286526 0.335644 0.426719 0.505513 44.783972 54.695716 76.387761 73.42836 77.961606 74.339102 1.069355 0.571005 1.855254 1.105171 2.825348 1.853208 54.69981 42.196031 105.518219 30.931476 129.588427 2.608407 18.120706-21.321608 25.495674-59.109236-13.355169-95.430466-0.227174-0.211824-0.485047-0.464581-0.703011-0.686638-0.353041-0.35918-36.084846-36.309974-103.982236-69.632917-9.184173-4.507664-14.041808-14.756075-11.715833-24.717961 2.320858-9.946536 11.186783-16.97972 21.396309-16.978696 0.016373 0 0.033769 0 0.050142 0l213.364459 0.48607c16.883529 0 30.618345-13.735839 30.618345-30.619368l0-244.361427L534.887266 336.986243 534.887266 594.214722C534.887266 594.43064 534.884197 594.645534 534.877033 594.860429zM103.228059-39.508573 103.228059 293.042405l387.715369 0L490.943428-70.126918 133.846404-70.126918C116.962875-70.126918 103.228059-56.391079 103.228059-39.508573zM892.424312-70.126918 534.887266-70.126918 534.887266 293.042405l388.154367 0 0-332.552002C923.041634-56.391079 909.307841-70.126918 892.424312-70.126918z"  horiz-adv-x="1024" />

    
    <glyph glyph-name="liwuhuodong" unicode="&#983514;" d="M836.345598 638.278287l-28.427446 0c14.415314 24.441669 20.741393 47.75463 18.720364 69.379137-1.677199 18.098193-10.254551 43.982724-41.686425 64.611553-26.059516 17.143449-59.57177 21.348214-96.751554 12.059664-60.292178-15.137769-131.649366-67.180052-178.566932-130.073474C462.687386 717.147566 391.387503 769.190873 331.096349 784.328641c-37.210483 9.348925-70.751391 5.114484-96.807836-12.059664-31.404244-20.62883-39.983643-46.51336-41.659819-64.611553-2.02103-21.624507 4.246721-44.937468 18.720364-69.379137l-28.427446 0c-43.043329 0-78.073146-35.056424-78.073146-78.132498l0-100.636025c0-34.075073 22.474874-64.190975 54.991452-74.30431-3.090385-8.550747-4.708232-17.390066-4.708232-26.347065l0-301.923424c0-43.046399 35.069727-78.117149 78.117149-78.117149l552.85857 0c43.044352 0 78.05882 35.069727 78.05882 78.117149L864.166223 358.859413c0 9.014304-1.558495 17.882276-4.649903 26.376741 32.468482 10.169617 54.890144 40.285518 54.890144 74.274634l0 100.609419C914.405441 603.193211 879.390973 638.278287 836.345598 638.278287M786.10638 34.459069 537.426601 34.459069 537.426601 381.363963l248.680802 0c12.394285 0 22.445198-10.110265 22.445198-22.50455l0-301.923424C808.551578 44.540681 798.500665 34.459069 786.10638 34.459069M568.049039 638.278287c39.549761 45.61899 91.462085 81.468476 133.614114 92.043323 21.896706 5.487991 39.807634 3.985778 52.780087-4.565992 13.781888-9.055237 16.23373-17.129122 16.785292-23.227004 2.192945-22.35924-21.784142-52.504818-33.108049-64.250326L568.049039 638.278287zM858.763167 560.119183l0-100.609419c0-12.394285-10.024308-22.473851-22.417569-22.473851L537.426601 437.035914 537.426601 582.609407l298.918997 0C848.738859 582.609407 858.763167 572.511421 858.763167 560.119183M481.812979 381.363963l0-346.904894L233.24781 34.459069c-12.423961 0-22.477944 10.082636-22.477944 22.476921L210.769866 358.859413c0 12.394285 10.053983 22.50455 22.477944 22.50455L481.812979 381.363963zM248.039701 702.528614c0.547469 6.097882 3.03308 14.172791 16.756639 23.227004 12.882402 8.55177 30.794353 10.127661 52.809763 4.565992 41.917692-10.515494 93.773733-46.36805 133.410476-92.043323L281.088398 638.278287C270.948457 648.548188 245.81401 679.633161 248.039701 702.528614M160.445714 560.119183c0 12.391215 10.053983 22.490224 22.474874 22.490224l298.891368 0 0-145.573493L182.920588 437.035914c-12.420891 0-22.474874 10.079566-22.474874 22.473851L160.445714 560.119183z"  horiz-adv-x="1024" />

    
    <glyph glyph-name="jiahao" unicode="&#58900;" d="M916.115386 428.771693 557.971519 428.771693 557.971519 786.914536c0 24.714891-20.056801 44.771693-44.770669 44.771693-24.715915 0-44.772716-20.056801-44.772716-44.771693l0-358.142843L110.285291 428.771693c-24.715915 0-44.771693-20.056801-44.771693-44.771693s20.056801-44.772716 44.771693-44.772716l358.142843 0 0-358.143866c0-24.761963 20.056801-44.770669 44.772716-44.770669 24.713868 0 44.770669 20.008706 44.770669 44.770669L557.971519 339.227284l358.143866 0c24.762987 0 44.771693 20.057825 44.771693 44.772716S940.878372 428.771693 916.115386 428.771693L916.115386 428.771693zM916.115386 428.771693"  horiz-adv-x="1024" />

    
    <glyph glyph-name="iconfontadd" unicode="&#58906;" d="M863.328 413.44l-317.344 1.12L545.984 733.184c0 17.664-14.336 32-32 32s-32-14.336-32-32l0-318.4L159.616 415.936c-0.032 0-0.064 0-0.096 0-17.632 0-31.936-14.24-32-31.904C127.424 366.368 141.728 352 159.392 351.936l322.592-1.152 0-319.168c0-17.696 14.336-32 32-32s32 14.304 32 32l0 318.944 317.088-1.12c0.064 0 0.096 0 0.128 0 17.632 0 31.936 14.24 32 31.904C895.264 399.008 880.96 413.376 863.328 413.44z"  horiz-adv-x="1024" />

    
    <glyph glyph-name="ren" unicode="&#58905;" d="M510.639003 765.016807c-121.685433 0-220.673935-98.992595-220.673935-220.678028 0-88.12406 52.040237-164.125011 126.894062-199.468984C278.472316 304.229189 177.053462 176.284191 177.053462 24.926972c0-9.633405 7.806803-17.432021 17.432021-17.432021 9.625218 0 17.432021 7.798617 17.432021 17.432021 0 164.720575 134.021389 298.733778 298.721499 298.733778 121.685433 0 220.683145 98.992595 220.683145 220.678028S632.324436 765.016807 510.639003 765.016807L510.639003 765.016807zM510.639003 358.524792c-102.462626 0-185.809893 83.359546-185.809893 185.813986 0 102.458533 83.347267 185.813986 185.809893 185.813986 102.46672 0 185.818079-83.355453 185.818079-185.813986C696.457082 441.880245 613.109816 358.524792 510.639003 358.524792L510.639003 358.524792zM510.639003 358.524792M712.986547 290.175101c-7.66354 5.840008-18.591427 4.393054-24.428366-3.269463-5.855358-7.659447-4.393054-18.587334 3.266393-24.443715 74.701352-57.081043 117.531833-143.66298 117.531833-237.530858 0-9.637498 7.810896-17.436114 17.433044-17.436114 9.633405 0 17.432021 7.798617 17.432021 17.436114C844.221474 129.759575 796.386002 226.438475 712.986547 290.175101L712.986547 290.175101zM712.986547 290.175101"  horiz-adv-x="1024" />

    
    <glyph glyph-name="dianzan" unicode="&#58892;" d="M884.876 472.857h-237.905c92.186 340.464-63.517 357.853-63.517 357.853-65.993 0-52.312-52.182-57.303-60.882 0-166.502-176.85-296.972-176.85-296.972v-472.172c0-46.608 63.517-63.394 88.433-63.394h357.452c33.641 0 61.036 88.224 61.036 88.224 88.434 300.706 88.434 390.177 88.434 390.177 0.001 62.128-59.781 57.164-59.781 57.164v0 0zM251.671 472.7h-142.457c-29.42 0-29.873-28.896-29.873-28.896l29.42-476.203c0-30.309 30.361-30.309 30.361-30.309h123.297c25.686 0 25.459 20.050 25.459 20.050l-0 479.247c0 36.574-36.208 36.111-36.208 36.111v0 0zM251.671 472.7z"  horiz-adv-x="1024" />

    
    <glyph glyph-name="iconfontjiantou2" unicode="&#58930;" d="M723.696401 362.897256c0.486519 0.973037 1.337926 1.824445 1.702815 2.797482 8.514075 17.757928 5.716593 39.651265-9.365483 53.881934L372.30835 744.692719c-18.730966 17.757928-48.28697 16.906521-66.044898-1.824445-17.757928-18.730966-16.906521-48.28697 1.824445-66.044898l308.452785-291.789524L309.304193 88.987291c-18.609336-17.879558-19.095855-47.435562-1.216296-66.044898 9.122224-9.487112 21.406818-14.352298 33.569783-14.352298 11.676446 0 23.352892 4.378667 32.353486 13.136002l340.563012 328.278418c0.608148 0.608148 0.851408 1.581185 1.581185 2.189334 0.486519 0.486519 0.973037 0.851408 1.581185 1.337926C720.53403 356.329255 721.871956 359.734885 723.696401 362.897256L723.696401 362.897256zM723.696401 362.897256"  horiz-adv-x="1024" />

    
    <glyph glyph-name="qianmoney113" unicode="&#59082;" d="M410.502095 584.078222c0 0-429.356698-563.492571 129.61727-575.154794 0 0 548.441397 0 13.653333 601.84381C454.257778 619.723175 410.502095 584.078222 410.502095 584.078222zM548.717714 310.564571c59.936508-21.162667 84.163048-48.88381 84.163048-94.281143 0-44.836571-31.760254-83.130921-89.713778-93.232762l0-51.378794-49.42019 0 0 47.85981c-33.759492 1.511619-66.519365 10.581333-85.682794 21.650286l15.140571 58.985651c21.170794-11.580952 50.899302-22.170413 83.683556-22.170413 28.728889 0 48.388063 11.085206 48.388063 31.240127 0 19.155302-16.132063 31.264508-53.434921 43.86946-53.930667 18.139429-90.737778 43.333079-90.737778 92.216889 0 44.365206 31.264508 79.124317 85.195175 89.713778l0 47.908571 49.371429 0 0-44.365206c33.767619-1.519746 56.466286-8.54146 73.094095-16.635937l-14.620444-56.962032c-13.084444 5.542603-36.27073 17.147937-72.606476 17.147937-32.735492 0-43.333079-14.108444-43.333079-28.233143C488.212317 337.286095 505.864127 326.696635 548.717714 310.564571zM544.987429 637.545651c0 0 37.254095 115.045587-6.485333 119.905524-36.831492 4.087873-93.175873 3.258921-150.69054-36.343873 17.944381-22.966857 38.091175-45.48673 38.091175-45.48673l-48.891937 37.571048c-7.208635-5.583238-14.409143-11.767873-21.577143-18.692063l56.701968-82.310095C412.127492 612.197587 477.947937 647.281778 544.987429 637.545651zM225.263746 254.252698l-113.452698 0 0 34.531556c22.584889 9.362286 47.737905 33.670095 47.737905 62.62654 0 5.965206-0.406349 11.077079-1.275937 17.034159l-41.772698 0 0 43.910095 34.100825 0c-2.121143 10.654476-3.413333 23.023746-3.413333 34.507175 0 53.719365 39.212698 89.071746 96.304762 89.071746 23.462603 0 40.911238-5.087492 50.265397-10.223746l-10.654476-49.005714c-8.078222 4.68927-20.016762 7.68-35.75873 7.68-30.256762 0-39.627175-19.61854-39.627175-40.082286 0-11.068952 1.235302-21.300825 3.811556-31.955302l58.408635 0 0-1.381587c19.423492 44.722794 42.105905 85.861587 62.325841 119.100952-24.478476 34.312127-54.580825 71.891302-91.209143 113.111365-77.750857 7.013587-111.932952-20.837587-111.932952-20.837587s-334.108444-438.507683 98.710349-449.316571C222.817524 199.070476 222.362413 226.450286 225.263746 254.252698zM213.227683 338.204444c-3.819683-10.67073-10.654476-21.317079-20.853841-30.264889l0-0.837079 42.06527 0c4.916825 20.618159 11.255873 41.20381 18.537651 61.334349l-35.888762 0C217.502476 357.790476 216.665397 348.013714 213.227683 338.204444zM234.179048 664.137143c0 0 29.110857 89.892571-5.054984 93.671619-28.785778 3.202032-72.817778 2.543746-117.751873-28.395683 14.035302-17.936254 29.769143-35.531175 29.769143-35.531175l-38.196825 29.338413c-5.632-4.356063-11.264-9.183492-16.871619-14.587937l44.308317-64.300698C130.381206 644.331683 181.808762 671.727746 234.179048 664.137143zM834.958222 643.193905c-77.74273 7.013587-111.932952-20.837587-111.932952-20.837587s-28.988952-38.05054-58.823111-91.99746c18.285714-23.917714 34.832254-47.095873 49.82654-69.591365 4.380444 7.834413 9.419175 15.067429 15.075556 21.601524 24.291556 27.266032 58.359873 43.471238 98.434032 43.471238 25.981968 0 48.566857-5.948952 63.91873-12.791873l-11.946667-48.583111c-11.060825 4.681143-28.558222 10.231873-47.290921 10.231873-20.463746 0-39.204571-6.802286-52.419048-22.999365-5.965206-6.834794-10.662603-16.619683-13.645206-27.680508l106.114032 0 0-30.264889L754.054095 393.752381c2.218667-3.323937 9.614222-16.083302 11.629714-20.024889l106.585397 0 0-30.248635L780.182349 343.478857c2.917587-6.550349 5.705143-13.035683 8.257016-19.399111 3.250794-8.159492 6.135873-16.180825 8.809651-24.112762 11.036444-5.575111 23.82019-8.061968 37.091556-8.061968 19.602286 0 39.627175 6.38781 48.583111 11.068952l10.24-47.290921c-14.506667-8.11073-39.212698-16.197079-66.486857-16.197079-4.908698 0-9.760508 0.251937-14.563556 0.723302 3.584-23.698286 3.93346-46.006857 1.178413-66.901333 3.624635-0.146286 7.281778-0.251937 11.012063-0.333206C824.303746 172.966603 1252.807111 172.966603 834.958222 643.193905zM828.090921 664.137143c0 0 29.110857 89.892571-5.054984 93.671619-28.769524 3.202032-72.817778 2.543746-117.735619-28.395683 14.027175-17.936254 29.761016-35.531175 29.761016-35.531175l-38.196825 29.338413c-5.632-4.356063-11.272127-9.183492-16.871619-14.587937l44.30019-64.300698C724.284952 644.331683 775.712508 671.727746 828.090921 664.137143z"  horiz-adv-x="1024" />

    
    <glyph glyph-name="yanjing" unicode="&#58977;" d="M515.2 672c-307.2 0-492.8-313.6-492.8-313.6s214.4-304 492.8-304 492.8 304 492.8 304S822.4 672 515.2 672zM832 243.2c-102.4-86.4-211.2-140.8-320-140.8s-217.6 51.2-320 140.8c-35.2 32-70.4 64-99.2 99.2-6.4 6.4-9.6 12.8-16 19.2 3.2 6.4 9.6 12.8 12.8 19.2 25.6 35.2 57.6 70.4 92.8 102.4 99.2 89.6 208 144 329.6 144s230.4-54.4 329.6-144c35.2-32 64-67.2 92.8-102.4 3.2-6.4 9.6-12.8 12.8-19.2-3.2-6.4-9.6-12.8-16-19.2C902.4 310.4 870.4 275.2 832 243.2zM512 550.4c-96 0-169.6-76.8-169.6-169.6 0-96 76.8-169.6 169.6-169.6 96 0 169.6 76.8 169.6 169.6C681.6 473.6 604.8 550.4 512 550.4zM512 256c-67.2 0-121.6 54.4-121.6 121.6 0 67.2 54.4 121.6 121.6 121.6 67.2 0 121.6-54.4 121.6-121.6C633.6 313.6 579.2 256 512 256z"  horiz-adv-x="1024" />

    
    <glyph glyph-name="erji" unicode="&#58922;" d="M796.374 557.062v-332.106h185.365v332.106h-185.365zM951.018 261.46h-123.918v259.101h123.918v-259.101zM502.887 818.227c-143.413 0-266.383-108.302-318.633-262.489h-150.387v-332.106h152.543c37.762-85.793 102.649-181.746 168.862-220.581 0.169-49.664 52.863-89.884 117.847-89.884 65.088 0 117.851 40.349 117.851 90.123s-52.764 90.123-117.851 90.123c-44.764 0-83.698-19.085-103.649-47.193-67.31 40.161-121.005 109.767-150.238 195.328v297.194c46.761 136.895 156.139 232.959 283.651 232.959 137.982 0 254.742-112.47 293.889-267.456v49.789h25.338c-51.909 155.101-175.279 264.197-319.226 264.197zM64.593 519.235h123.918v-259.101h-123.918v259.101z"  horiz-adv-x="1024" />

    
    <glyph glyph-name="ren1" unicode="&#58951;" d="M985.6-128 38.4-128c-12.8 0-25.6 12.8-25.6 25.6 0 217.6 192 275.2 281.6 300.8 19.2 6.4 32 12.8 38.4 12.8 76.8 38.4 83.2 64 83.2 70.4 0 6.4 0 6.4 0 6.4C352 326.4 320 428.8 300.8 467.2c0 0 0 6.4 0 6.4C256 492.8 249.6 569.6 249.6 601.6c0 38.4 6.4 51.2 25.6 64C281.6 793.6 384 896 512 896c128 0 230.4-96 230.4-224 19.2-12.8 32-19.2 32-57.6 0-38.4-12.8-115.2-51.2-134.4 0 0 0-6.4 0-6.4-12.8-44.8-44.8-140.8-115.2-185.6 0 0 0-6.4 0-12.8 0-12.8 32-44.8 83.2-70.4 12.8-6.4 25.6-12.8 51.2-19.2 96-25.6 268.8-83.2 268.8-300.8C1011.2-115.2 998.4-128 985.6-128zM64-83.2l896 0c-12.8 160-147.2 204.8-236.8 230.4-25.6 6.4-44.8 12.8-57.6 19.2l0 0c-32 19.2-108.8 57.6-108.8 115.2 0 25.6 6.4 44.8 25.6 51.2 51.2 32 83.2 121.6 96 153.6C684.8 512 691.2 524.8 704 524.8c6.4 6.4 25.6 51.2 25.6 89.6 0 12.8 0 19.2 0 19.2 0 0-6.4 0-6.4 6.4 0 0-6.4 0-6.4 6.4-6.4 6.4-12.8 12.8-12.8 19.2l0 6.4C697.6 768 620.8 851.2 512 851.2c-102.4 0-192-83.2-192-185.6l0-6.4C320 646.4 320 640 313.6 633.6 294.4 627.2 294.4 627.2 294.4 601.6c0-38.4 12.8-76.8 19.2-83.2 12.8 0 19.2-12.8 25.6-32C358.4 448 390.4 358.4 441.6 326.4 454.4 320 467.2 307.2 467.2 281.6c0-38.4-38.4-76.8-108.8-115.2-12.8-6.4-25.6-12.8-51.2-19.2C224 128 76.8 83.2 64-83.2z"  horiz-adv-x="1024" />

    
    <glyph glyph-name="qian" unicode="&#58993;" d="M934.4 633.6l0-544 0 0c-6.4-121.6-192-217.6-416-217.6-230.4 0-409.6 96-416 217.6l0 0L102.4 633.6c0 12.8 0 19.2 0 32C89.6 793.6 275.2 896 512 896c236.8 0 422.4-102.4 422.4-230.4C934.4 652.8 934.4 640 934.4 633.6zM512 819.2c-204.8 0-358.4-83.2-358.4-160 0-76.8 153.6-160 358.4-160 204.8 0 358.4 83.2 358.4 160C870.4 736 716.8 819.2 512 819.2zM870.4 531.2c-76.8-64-211.2-102.4-364.8-102.4-147.2 0-288 38.4-358.4 102.4l0-38.4C166.4 409.6 332.8 345.6 512 345.6c179.2 0 345.6 70.4 364.8 147.2L876.8 531.2zM870.4 384c-70.4-64-211.2-102.4-364.8-102.4C358.4 281.6 224 326.4 147.2 384l0-32c19.2-83.2 185.6-147.2 358.4-147.2 179.2 0 345.6 70.4 364.8 147.2L870.4 384zM870.4 249.6c-70.4-64-211.2-102.4-364.8-102.4-147.2 0-288 38.4-358.4 102.4l0-32c19.2-83.2 185.6-147.2 358.4-147.2 179.2 0 345.6 70.4 364.8 147.2L870.4 249.6zM870.4 89.6l0 19.2c-70.4-64-211.2-102.4-364.8-102.4-147.2 0-288 38.4-358.4 102.4l0-19.2 0 0C160 6.4 326.4-64 512-64 691.2-64 864 6.4 870.4 89.6L870.4 89.6zM588.8 665.6C608 659.2 620.8 640 620.8 627.2c0-25.6-12.8-38.4-38.4-51.2C563.2 569.6 544 563.2 524.8 563.2l0-25.6L505.6 537.6 505.6 563.2c-25.6 0-51.2 6.4-64 12.8C416 588.8 403.2 601.6 403.2 627.2l57.6 0c0-12.8 6.4-19.2 6.4-25.6 6.4-6.4 19.2-12.8 32-12.8L499.2 652.8 486.4 659.2C460.8 659.2 441.6 665.6 428.8 678.4 416 684.8 409.6 697.6 409.6 710.4c0 6.4 0 19.2 6.4 25.6 6.4 6.4 12.8 12.8 19.2 19.2C448 761.6 454.4 761.6 467.2 768 480 768 486.4 768 505.6 768L505.6 787.2l19.2 0L524.8 768C544 768 563.2 761.6 576 755.2c25.6-12.8 38.4-25.6 38.4-44.8L556.8 710.4c0 6.4-6.4 12.8-6.4 19.2C544 736 537.6 736 524.8 736l0-51.2C556.8 678.4 582.4 672 588.8 665.6zM524.8 595.2c12.8 0 19.2 0 25.6 6.4 6.4 6.4 12.8 12.8 12.8 19.2 0 6.4-6.4 12.8-12.8 19.2C544 640 537.6 646.4 524.8 646.4L524.8 595.2zM505.6 736c-12.8 0-19.2 0-25.6-6.4C467.2 729.6 467.2 723.2 467.2 716.8c0-6.4 6.4-12.8 12.8-19.2 6.4 0 12.8-6.4 25.6-6.4L505.6 736z"  horiz-adv-x="1024" />

    
    <glyph glyph-name="sanjiaoleft" unicode="&#59062;" d="M268.025732 384.002048l487.950584-365.02634L755.976316 749.024292 268.025732 384.002048"  horiz-adv-x="1024" />

    
    <glyph glyph-name="ai-eye" unicode="&#58985;" d="M1023.997 384.169c0-99.79-211.129-312.67-511.999-312.67-293.211 0-511.998 209.376-511.998 312.67 0 103.279 219.73 312.334 511.999 312.334 303.234-0.001 512.071-209.057 511.999-312.335v0.001zM512.45 639.471c-136.266 0-246.73-114.384-246.73-255.471 0-141.089 110.463-255.471 246.729-255.471 136.307 0 246.774 114.383 246.774 255.471-0 141.087-110.467 255.471-246.773 255.471v0zM511.999 547.099c-86.778 0-157.126-72.827-157.126-162.673 0-89.836 70.348-162.677 157.126-162.677s157.097 72.841 157.097 162.677c0 89.847-70.32 162.673-157.097 162.673v0z"  horiz-adv-x="1024" />

    
    <glyph glyph-name="jiahao1" unicode="&#58904;" d="M283.136 421.376l519.168 0 0-34.816-519.168 0 0 34.816ZM524.153936 144.356798l2.430137 519.168 34.816-0.162968-2.430137-519.168-34.816 0.162968Z"  horiz-adv-x="1099" />

    
    <glyph glyph-name="ren2" unicode="&#58909;" d="M886.354587 182.392964c-20.467719 48.406156-49.736558 91.797721-87.090146 129.151309-37.353588 37.353588-80.745153 66.622427-129.151309 87.090146-16.06716 6.754347-32.441335 12.485309-49.122526 17.192884C682.598441 452.873876 723.840895 520.315011 723.840895 597.375974c0 116.768339-95.072556 211.840895-211.840895 211.840895s-211.840895-95.072556-211.840895-211.840895c0-76.958625 41.242455-144.502099 102.85029-181.548671-16.681191-4.605237-33.055367-10.336198-49.122526-17.192884-48.406156-20.467719-91.797721-49.736558-129.151309-87.090146-37.353588-37.353588-66.622427-80.745153-87.090146-129.151309-21.18409-50.145912-31.929642-103.361983-31.929642-158.113132 0-12.485309 10.029182-22.514491 22.514491-22.514491s22.514491 10.029182 22.514491 22.514491c0 199.150909 162.104337 361.255247 361.255247 361.255247s361.255247-162.104337 361.255247-361.255247c0-12.485309 10.029182-22.514491 22.514491-22.514491s22.514491 10.029182 22.514491 22.514491C918.284229 79.030981 907.538677 132.247052 886.354587 182.392964zM345.188087 597.375974c0 92.002399 74.809514 166.811913 166.811913 166.811913s166.811913-74.809514 166.811913-166.811913-74.809514-166.811913-166.811913-166.811913S345.188087 505.373576 345.188087 597.375974zM512-359.489906"  horiz-adv-x="1024" />

    
    <glyph glyph-name="ai59" unicode="&#59057;" d="M510.976182 737.132736c-194.228633 0-353.130689-158.901033-353.130689-353.134783 0-194.229656 158.902056-353.130689 353.130689-353.130689 194.229656 0 353.130689 158.901033 353.130689 353.130689C864.106872 578.231703 705.205838 737.132736 510.976182 737.132736M510.976182 631.198032c60.004629 0 105.935728-45.931099 105.935728-105.934704 0-60.078307-45.931099-105.931634-105.935728-105.931634-59.999512 0-105.931634 45.853327-105.931634 105.931634C405.044548 585.266933 450.975647 631.198032 510.976182 631.198032M510.976182 129.742179c-88.293929 0-165.93524 45.934169-211.866339 112.99654 0 70.656223 141.264351 109.475344 211.866339 109.475344 70.607104 0 211.871455-38.819121 211.871455-109.475344C676.912445 175.676347 599.274204 129.742179 510.976182 129.742179"  horiz-adv-x="1024" />

    
    <glyph glyph-name="wo" unicode="&#58979;" d="M717.664 283.805c-52.734-47.461-121.289-79.102-200.391-79.102s-147.656 31.641-205.664 79.102c-131.836-68.555-221.484-158.203-221.484-321.68l843.75 0c0 163.477-89.648 247.852-216.211 321.68zM512 267.984c131.836 0 237.305 110.742 237.305 242.578s-105.469 242.578-237.305 242.578-237.305-110.742-237.305-242.578c0-137.109 110.742-242.578 237.305-242.578z"  horiz-adv-x="1024" />

    
    <glyph glyph-name="yinxingqia" unicode="&#58887;" d="M1000.8062 536.084137c-17.526515 65.90464-61.762063 130.708909-63.703896 133.536336-9.206054 13.392764-27.524014 16.773319-40.913836 7.564323-12.474807-8.582314-16.249613-25.067301-9.261956-38.107005l-0.114745-0.050017c0.535475-0.788502 1.050355-1.591715 1.579946-2.383159 0.079439-0.123571 0.150051-0.253027 0.235374-0.376598 0.017653-0.035306 0.179472-0.264795 0.435441-0.653162 1.188637-1.780014 2.362564-3.57768 3.521779-5.378289 3.321712-5.172337 8.44109-13.395707 14.290127-23.681538 0.764965-1.359283 1.54464-2.706798 2.291952-4.074907 12.360062-22.186915 27.147416-52.447148 34.891211-81.96007 1.132736-3.612987 2.230166-7.240684 3.280521-10.891919 2.286067-7.976227 4.401488-16.031892 6.269767-24.184649 27.100341-117.948711 6.637539-239.395664-57.607717-341.962703s-164.588013-173.97354-282.545551-201.067997c-117.948711-27.100341-239.395664-6.637539-341.962703 57.607717-102.561154 64.245256-173.97354 164.588013-201.067997 282.545551-27.094457 117.951653-6.631654 239.398606 57.613601 341.962703 64.245256 102.567039 164.588013 173.976482 282.539666 201.067997 69.123376 15.878899 139.441274 15.399325 206.460997-0.62374 44.276738-10.591817 87.10887-27.96534 127.20184-51.926384 2.774468-1.662327 5.545993-3.336422 8.296923-5.060535l0.079439 0.126513c13.595774-7.61434 30.910453-3.321712 39.272104 10.02692 8.626447 13.772305 4.460332 31.928445-9.314915 40.551949-0.597261 0.373656-3.901319 2.427291-9.303146 5.557762C535.01927 965.794162 226.079499 891.898584 78.173598 655.771672c-150.091934-239.607501-77.526218-555.52316 162.084225-705.615094 239.613385-150.091934 555.52316-77.520333 705.615094 162.090109C1028.327272 243.885322 1043.544183 398.540564 1000.8062 536.084137zM708.698593 602.930273 315.312617 602.930273c-64.995509 0-117.686858-52.691348-117.686858-117.686858l0-275.399016c0-64.998452 52.691348-117.686858 117.686858-117.686858l393.385976 0c64.998452 0 117.686858 52.688406 117.686858 117.686858l0 275.399016C826.385451 550.238924 773.697044 602.930273 708.698593 602.930273zM767.542022 209.844399c0-32.443325-26.397162-58.843429-58.843429-58.843429L315.312617 151.00097c-32.446267 0-58.843429 26.400104-58.843429 58.843429l0 200.291263c1.447548-0.150051 2.915692-0.253027 4.413257-0.253027l493.908205 0c4.501522 0 8.791208 0.729659 12.751371 2.009503L767.542022 209.844399zM767.542022 466.716561c-3.960163 1.279845-8.249849 2.009503-12.751371 2.009503L260.882445 468.726064c-1.497565 0-2.962767-0.102976-4.413257-0.253027l0 16.773319c0 32.446267 26.397162 58.843429 58.843429 58.843429l393.385976 0c32.446267 0 58.843429-26.397162 58.843429-58.843429L767.542022 466.716561zM494.740943 252.367602l-166.162075 0c-15.455227 0-27.982993-13.172102-27.982993-29.421714s12.527766-29.421714 27.982993-29.421714l166.162075 0c15.455227 0 27.982993 13.172102 27.982993 29.421714S510.196169 252.367602 494.740943 252.367602zM494.740943 340.632746l-166.162075 0c-15.455227 0-27.982993-13.172102-27.982993-29.421714s12.527766-29.421714 27.982993-29.421714l166.162075 0c15.455227 0 27.982993 13.172102 27.982993 29.421714S510.196169 340.632746 494.740943 340.632746z"  horiz-adv-x="1024" />

    
    <glyph glyph-name="qian1" unicode="&#59004;" d="M1201.719367 253.812202C1201.719367 349.953867 1070.928037 425.267357 910.669792 425.267357 900.004193 425.267357 887.178909 424.884862 876.836771 424.23302L876.836771 704.774423C878.328626 711.880722 877.772717 719.094022 877.772717 726.465977 877.772717 821.206797 756.167429 895.423227 595.907954 895.423227 435.64479 895.423227 310.123534 821.205566 310.123534 726.465977 310.123534 719.094022 311.136963 711.879491 312.622669 704.774423L312.622669 627.847317C303.579295 628.331894 294.41539 628.636906 285.09775 628.636906 124.839505 628.636906 1.652579 554.431546 1.652579 459.700564 1.652579 452.3077 0.326758 445.094401 1.819844 437.988101L1.819844 45.060658 3.767988 45.060658C8.797005-44.502328 130.370317-113.92711 285.09775-113.92711 439.708344-113.92711 569.041026-44.615478 574.248376 45.061889L576.191601 45.061889 576.191601 61.428024C585.343206 60.895482 586.490693 60.039479 595.907954 60.039479 606.60307 60.039479 617.047289 60.492079 627.383277 61.167288L627.383277 56.545364 629.467939 56.545364 628.862833 45.83918C628.862833-46.516885 754.484939-126.954095 914.853875-126.954095 1075.243717-126.954095 1200.858445-53.518644 1200.858445 40.409219L1200.546053 51.069898 1202.342917 51.069898 1202.342917 231.787347C1203.8606 239.000647 1201.719367 246.309878 1201.719367 253.812202L1201.719367 253.812202ZM914.852645 370.759901C1055.843447 370.759901 1154.09314 309.127697 1154.09314 253.812202 1154.09314 198.501628 1055.842216 136.869423 914.852645 136.869423 773.871683 136.869423 675.61953 198.501627 675.61953 253.812202 675.620759 309.127696 773.871683 370.759901 914.852645 370.759901L914.852645 370.759901ZM1156.636551 157.950953 1156.636551 128.3672C1143.155736 69.139428 1035.997954 19.621632 914.850185 19.621632 793.790968 19.621632 686.643026 69.104992 673.077348 128.272498L673.077348 157.950953C724.594944 112.05395 812.762006 82.361967 914.850185 82.361967 1016.955582 82.361967 1105.118954 112.05272 1156.636551 157.950953L1156.636551 157.950953ZM595.907954 396.492871C586.609992 396.492871 585.264493 396.895045 576.190371 397.476782L576.190371 437.988101C577.115248 442.386184 577.740032 446.833463 578.174183 451.326249 586.565716 450.821994 587.248305 450.516982 595.909184 450.516982 697.448831 450.516982 780.727084 480.48692 830.244881 526.398683L830.244881 503.642043C816.955929 445.303481 715.263775 396.492871 595.907954 396.492871L595.907954 396.492871ZM834.159618 419.180637C830.023501 418.517726 825.854177 417.924919 821.794312 417.166078 825.987005 420.46833 830.391237 423.673421 834.159618 427.165076L834.159618 419.180637 834.159618 419.180637ZM595.907954 841.70167C734.830082 841.70167 827.726068 780.974664 827.726068 726.467208 827.726068 671.97205 734.830081 611.246274 595.906723 611.246274 456.979676 611.246274 360.170182 671.97328 360.170182 726.467208 360.170184 780.974664 456.979677 841.70167 595.907954 841.70167L595.907954 841.70167ZM357.65875 632.02156C361.973201 628.172008 366.900137 624.610249 371.729912 621.004213 367.135046 621.846688 362.355696 622.439494 357.65875 623.14545L357.65875 632.02156 357.65875 632.02156ZM285.09775 574.933797C424.024797 574.933797 524.749028 514.193263 524.749028 459.699335 524.749028 405.185728 424.024797 344.4784 285.09775 344.4784 146.175621 344.4784 49.366128 405.185728 49.366128 459.699335 49.366129 514.193261 146.175623 574.933797 285.09775 574.933797L285.09775 574.933797ZM46.848546 365.234009C97.628208 320.012215 184.495278 290.753153 285.097751 290.753153 385.700223 290.753153 476.486949 320.013445 527.246933 365.234009L527.246933 336.086866C513.97274 277.731085 404.460951 228.931544 285.097751 228.931544 165.798505 228.931544 60.22605 277.697879 46.848546 336.009383L46.848546 365.234009 46.848546 365.234009ZM46.848546 259.559474C96.365112 213.700598 183.547034 183.730659 285.09775 183.730659 386.637397 183.730659 477.748814 213.700597 527.246932 259.61113L527.246932 236.87171C513.972738 178.51593 404.46095 129.718849 285.09775 129.718849 165.798503 129.718849 60.226049 178.465505 46.848544 236.775779L46.848546 259.559474 46.848546 259.559474ZM46.848546 160.335709C96.365112 114.468223 183.547034 84.505664 285.097751 84.505664 386.637399 84.505664 477.748815 114.468223 527.246933 160.387364L527.246933 137.647944C513.97274 79.286015 404.460951 30.493852 285.097751 30.493852 165.798505 30.493852 60.22605 79.234359 46.848546 137.56677L46.848546 160.335709 46.848546 160.335709ZM285.09775-68.717616C161.261442-68.717616 52.476518-16.161994 45.999921 45.060658L46.848544 45.060658 46.848544 61.12055C96.365111 15.276432 183.547033-14.695966 285.09775-14.695966 386.637397-14.695966 477.748814 15.275203 527.246932 61.166056L527.246933 45.060658 528.082028 45.060658C521.607892-16.160763 408.924219-68.717616 285.09775-68.717616L285.09775-68.717616ZM571.807047 496.942837C562.375027 522.598324 535.596651 545.866597 509.259805 565.483329 536.547356 560.505968 565.486646 557.541935 595.910414 557.541935 696.512886 557.541935 779.466449 586.798538 830.246112 632.021562L830.246112 602.871959C816.958389 544.516179 715.266235 495.719098 595.910414 495.719098 585.119367 495.717868 582.296771 496.190144 571.807047 496.942837L571.807047 496.942837ZM627.382047 106.546507C617.03376 105.776596 606.555105 105.240364 595.907954 105.240364 586.609992 105.240364 585.264493 105.627779 576.190371 106.227966L576.190371 153.828365C585.241125 153.246627 586.565716 152.859213 595.907954 152.859213 606.633817 152.859213 617.059588 153.394214 627.382047 154.151827L627.382047 106.546507 627.382047 106.546507ZM627.382047 199.388378C617.03376 198.608628 606.555105 198.061328 595.907954 198.061328 586.609992 198.061328 585.264493 198.470881 576.190371 199.044009L576.190371 253.06074C585.241125 252.477773 586.565716 252.078058 595.907954 252.078058 605.844229 252.078058 615.517307 252.545416 625.084614 253.186189 625.333052 246.890387 626.12264 240.707733 627.383277 234.617322L627.382047 199.388378 627.382047 199.388378ZM634.113231 299.046295C621.59542 297.925866 608.864837 297.275255 595.909185 297.275255 586.611223 297.275255 585.265724 297.66513 576.191602 298.265315L576.191602 352.252529C585.242356 351.69293 586.566947 351.291986 595.909185 351.291986 626.569091 351.291986 655.686716 354.318743 683.103405 359.404335 660.426709 341.788632 643.635032 321.382311 634.113231 299.046295L634.113231 299.046295ZM914.852645-81.075541C786.011918-81.075541 672.880567-25.051631 671.605171 39.089547L672.008574 51.069898 672.691163 51.069898C722.854651 4.319352 811.528429-26.255692 914.852645-26.255692 1018.141195-26.255692 1106.787915 4.307053 1156.969852 51.069898L1157.739763 51.069898 1158.117339 40.200138C1158.114877-24.40102 1044.449754-81.075541 914.852645-81.075541L914.852645-81.075541ZM262.454261 424.508516C260.35853 427.026099 258.719088 431.965333 257.547003 439.32622L223.579924 439.32622C223.324107 423.144568 230.366453 411.69307 244.705731 404.976646 252.842677 401.241473 265.174776 398.730039 281.704485 397.444805L281.704485 380.001287 293.902526 380.001287 293.902527 397.62068C306.909834 398.309417 318.138723 400.712621 327.615018 404.795852 343.132529 411.449553 350.90174 422.143439 350.90174 436.865211 350.90174 448.025225 345.262698 456.671346 333.988304 462.802343 327.143971 466.472333 313.781225 470.71176 293.903757 475.510788L293.903757 508.892439C302.194439 508.477966 307.904815 506.202671 311.05948 502.046876 312.876026 499.651053 314.124364 495.865453 314.779894 490.665482L347.881131 490.665482C347.376876 504.672689 340.067645 514.819274 325.965736 521.069572 318.203906 524.984309 307.503871 527.316178 293.903757 528.07502L293.903757 539.907784 281.705716 539.907784 281.705716 528.250894C273.154297 527.779847 266.634655 527.059131 262.205823 526.059232 254.895362 524.478825 248.274869 521.609492 242.328355 517.475835 237.716271 514.257216 234.127454 510.44087 231.570515 505.99851 229.008656 501.548771 227.727111 496.623066 227.727111 491.193105 227.727111 482.952847 231.017065 475.911732 237.593282 470.066069 244.181797 464.235164 255.494318 459.678426 271.516084 456.397081L281.705716 454.298891 281.705716 416.890583C272.143328 418.052828 265.729455 420.596238 262.454261 424.508516L262.454261 424.508516ZM293.904986 451.402502C300.869848 449.598255 305.810313 447.845662 308.707931 446.157025 313.602891 443.226199 316.04299 439.261036 316.04299 434.240629 316.04299 427.637354 313.444234 422.999441 308.206136 420.308444 305.228575 418.793221 300.455375 417.734286 293.904986 417.155008L293.904986 451.402502 293.904986 451.402502ZM268.108062 482.342823C262.830608 485.204776 260.180196 489.083845 260.180196 493.999712 260.180196 498.492498 261.951237 502.034577 265.476098 504.641943 268.986202 507.237009 274.405094 508.587427 281.708175 508.714107L281.708175 477.959499C275.577178 479.296387 271.040118 480.761185 268.108062 482.342823L268.108062 482.342823ZM888.461683 227.811116C886.357343 230.32255 884.72528 235.248257 883.545816 242.606683L849.579968 242.606682C849.33276 226.422571 856.367727 214.975993 870.707004 208.259568 878.843951 204.524395 891.182199 202.014191 907.706989 200.719118L907.706989 183.296508 919.91241 183.296508 919.91241 200.898681C932.912338 201.604638 944.147375 204.007841 953.624901 208.080004 969.141182 214.746004 976.905472 225.439889 976.905472 240.161662 976.905472 251.320446 971.261511 259.949348 959.988347 266.086495 953.145243 269.776163 939.788647 274.008211 919.91241 278.79371L919.91241 312.176591C928.194483 311.775647 933.906088 309.485593 937.059524 305.342096 938.894519 302.946273 940.125637 299.148375 940.792237 293.948403L973.881175 293.948403C973.37815 307.969139 966.073838 318.102195 951.971929 324.346343 944.203949 328.25985 933.523592 330.612628 919.909949 331.37024L919.909949 343.190705 907.70576 343.190705 907.70576 331.547344C899.153111 331.062767 892.651917 330.335903 888.204638 329.354452 880.901556 327.774045 874.281063 324.912092 868.329629 320.757527 863.715085 317.551206 860.134878 313.713951 857.57179 309.292501 855.01731 304.843991 853.736995 299.898607 853.736995 294.474796 853.736995 286.248068 857.023258 279.204493 863.614234 273.361289 870.192912 267.518085 881.498052 262.960116 897.517359 259.693531L907.706991 257.583042 907.706991 220.174734C898.140911 221.346818 891.730729 223.897608 888.461683 227.811116L888.461683 227.811116ZM919.91241 254.698953C926.871122 252.881176 931.807898 251.139654 934.715355 249.453475 939.609083 246.522649 942.045494 242.543959 942.045494 237.517401 942.045494 230.935034 939.444278 226.281134 934.218479 223.591366 931.229849 222.076143 926.456649 221.029507 919.913639 220.449L919.91241 254.698953 919.91241 254.698953ZM894.111794 285.638043C888.829421 288.487696 886.197458 292.367997 886.197458 297.275254 886.197458 301.772959 887.947591 305.329797 891.474913 307.923634 895.004695 310.529769 900.402678 311.882647 907.70453 311.995797L907.70453 281.254718C901.582141 282.591608 897.05738 284.057636 894.111794 285.638043L894.111794 285.638043ZM571.272045 688.592772C569.175084 691.104206 567.536872 696.049589 566.359868 703.403097L532.39771 703.403097C532.143123 687.221445 539.196537 675.769947 553.537044 669.059673 561.661692 665.318351 573.992561 662.808147 590.524731 661.520453L590.524731 644.085544 602.722772 644.085544 602.722772 661.700015C615.7227 662.407202 626.958967 664.790726 636.434033 668.882568 651.951544 675.548567 659.714604 686.222775 659.714604 700.956846 659.714604 712.104561 654.081713 720.750682 642.802398 726.889059 635.956836 730.559048 622.59778 734.809545 602.722772 739.588894L602.722772 772.975465C611.006075 772.556073 616.737358 770.286927 619.878495 766.132361 621.70611 763.748836 622.935999 759.944789 623.611208 754.742357L656.692766 754.742357C656.188511 768.768013 648.885429 778.90107 634.782291 785.146447 627.015541 789.059954 616.333954 791.397973 602.721541 792.150666L602.721541 803.992039 590.5235 803.992039 590.5235 792.329C581.965931 791.865332 575.464738 791.137237 571.016228 790.137337 563.727904 788.564308 557.093883 785.714656 551.13999 781.55886 546.525446 778.351308 542.944008 774.516515 540.38338 770.075385 537.82644 765.644094 536.546126 760.69994 536.546126 755.276129 536.546126 747.028493 539.83485 739.994756 546.423366 734.163853 552.999583 728.320649 564.304724 723.756531 580.32649 720.494865L590.523501 718.378226 590.523501 680.976067C580.951272 682.150613 574.53986 684.681724 571.272045 688.592772L571.272045 688.592772ZM602.72031 715.499056C609.679022 713.68251 614.619487 711.924998 617.525716 710.23513 622.419444 707.322753 624.859545 703.339141 624.859545 698.318734 624.859545 691.715459 622.253409 687.077547 617.03499 684.386549 614.03898 682.876245 609.265781 681.825919 602.72154 681.233114L602.72031 715.499056 602.72031 715.499056ZM576.924616 746.42093C571.639782 749.289031 569.009049 753.170561 569.009049 758.077819 569.009049 762.570604 570.76164 766.133593 574.292652 768.726199 577.816284 771.313885 583.214267 772.683982 590.522269 772.799591L590.522269 742.037604C584.392502 743.394172 579.867741 744.839292 576.924616 746.42093L576.924616 746.42093Z"  horiz-adv-x="1204" />

    
    <glyph glyph-name="wenjianjia" unicode="&#59240;" d="M912.486 443.959v0h-687.071c-25.518 0-47.091-16.669-54.521-39.729v0l-59.946-184.682v510.65h286.299c0-63.238 51.229-114.467 114.471-114.467v0h286.236v-114.469h57.229v114.469c0 31.588-25.639 57.236-57.229 57.236h-286.304c-31.586 0-57.234 25.645-57.234 57.231v0c0 31.589-25.58 57.234-57.234 57.234v0h-286.236c-31.587 0-57.234-25.646-57.234-57.234v-686.941c0-31.589 25.646-57.229 57.234-57.229h686.943c25.518 0 47.091 16.663 54.521 39.729h0.063l117.116 360.974c0.001 31.587-25.516 57.169-57.106 57.234v0zM800.864 43.253h-689.914l111.498 343.471h689.909l-111.494-343.471z"  horiz-adv-x="1024" />

    
    <glyph glyph-name="dongtai" unicode="&#58959;" d="M410.5664-119.68l29.888 0c8 0 14.464 6.464 14.528 14.464 0.128 45.696 0.448 184.64-0.064 197.056-0.576 14.912 5.888 31.168 12.352 38.72 5.952 6.976 419.648 489.024 484.096 564.16 2.304 2.688 6.592 0.576 5.952-2.88-18.304-93.568-131.776-673.6-133.44-681.92-1.408-7.04-5.952-9.984-12.352-7.936-6.848 2.24-229.824 71.68-278.72 86.912-5.248 1.6-10.816-1.216-12.48-6.464l-8-24.192c-1.728-5.312 1.152-11.008 6.528-12.672 48.064-15.104 259.584-81.472 283.136-88.512 29.184-8.704 59.52 10.112 65.728 43.264 5.12 27.328 144 734.208 146.048 746.944 2.048 12.736 5.248 34.752-6.784 43.328-19.008 13.504-36.352 7.552-42.496 3.136-0.64-0.448-1.472-0.512-2.176-0.896l-3.2-1.792c0 0-900.16-480.64-932.288-497.984-32.128-17.28-30.656-53.76-3.776-62.528 23.936-7.744 240.896-78.208 289.216-93.888 5.248-1.728 10.944 1.152 12.608 6.464l7.68 23.552c1.728 5.248-1.216 10.944-6.464 12.672l-236.736 76.16c-8.448 2.688-9.472 14.208-1.664 18.368l808.256 432.576c2.304 1.216 4.608-1.6 2.88-3.584-60.928-71.04-442.56-515.584-459.648-535.232-18.496-21.312-28.928-43.52-28.928-71.616C410.3104 67.904 410.5664-119.68 410.5664-119.68L410.5664-119.68M410.5664-119.68M440.4544-122.432l-32.64 0-0.256 218.496c-0.064 26.816 9.344 50.112 29.568 73.408 16.576 19.072 381.056 443.712 458.176 533.504l-806.272-431.552c-3.136-1.664-4.032-4.736-3.776-7.04 0.192-2.304 1.664-5.184 4.992-6.272l236.736-76.16c3.264-1.024 5.888-3.328 7.488-6.336 1.536-3.072 1.856-6.528 0.768-9.792l-7.68-23.616c-2.176-6.72-9.408-10.368-16.128-8.192l-289.216 93.888c-12.672 4.096-20.864 14.144-22.08 26.944-1.408 15.872 8.256 31.424 25.344 40.64 31.744 17.088 923.264 493.12 932.288 497.984l3.136 1.728c0.576 0.32 1.088 0.448 1.472 0.576 7.488 5.248 26.24 11.136 46.144-3.008 13.76-9.728 9.792-34.24 7.936-46.016-1.152-7.296-46.72-239.68-86.912-444.736-30.528-155.904-56.96-290.56-59.136-302.272-3.2-17.152-12.608-31.36-26.56-39.872-12.928-7.936-28.096-9.856-42.624-5.504-22.016 6.592-205.376 64.064-283.136 88.512-3.264 1.024-5.952 3.264-7.552 6.336-1.6 3.072-1.856 6.592-0.768 9.856l8 24.192c2.176 6.592 9.344 10.304 15.936 8.192l10.112-3.136c64.832-20.224 262.144-81.728 268.608-83.776 2.24-0.704 4.096-0.64 5.504 0.192 1.984 1.152 2.88 3.712 3.264 5.696 1.088 5.568 52.352 267.584 91.584 468.16l41.856 213.76c0 0.128 0.064 0.512-0.32 0.704-0.448 0.192-0.704-0.064-0.768-0.192-64.448-75.136-478.144-557.184-484.096-564.16-6.144-7.168-12.224-22.912-11.712-36.864 0.448-12.672 0.128-154.112 0.064-197.12C457.7344-114.752 449.9264-122.432 440.4544-122.432zM413.3184-116.928l27.136 0c6.464 0 11.712 5.248 11.712 11.712 0.064 30.592 0.448 184-0.064 196.928-0.576 15.872 6.272 32.768 12.992 40.64 6.016 6.976 419.648 489.024 484.096 564.16 1.856 2.176 4.8 2.752 7.36 1.536 2.56-1.216 3.904-3.968 3.392-6.72l-41.856-213.76c-39.232-200.576-90.496-462.528-91.648-468.16-0.832-4.416-2.88-7.616-5.888-9.408-2.816-1.664-6.272-1.856-10.048-0.64-6.464 2.048-203.712 63.552-268.608 83.776l-10.112 3.136c-3.776 1.216-7.808-0.896-9.024-4.672l-8-24.192c-0.64-1.856-0.448-3.84 0.448-5.568 0.896-1.728 2.432-3.008 4.288-3.584 60.672-19.072 260.48-81.728 283.072-88.448 13.056-3.904 26.56-2.112 38.144 4.928 12.608 7.68 21.12 20.544 24.064 36.16 2.176 11.776 28.608 146.432 59.136 302.336 40.192 204.992 85.696 437.312 86.848 444.544 1.728 10.688 5.248 32.896-5.632 40.64-17.344 12.352-33.28 7.488-39.296 3.136-0.704-0.512-1.408-0.768-1.984-0.896l-3.648-1.92c-9.024-4.8-900.544-480.832-932.288-497.984-18.048-9.728-23.424-24.576-22.464-35.264 0.96-10.496 7.744-18.752 18.24-22.144l289.216-93.888c3.776-1.216 7.872 0.832 9.152 4.672l7.68 23.616c0.576 1.856 0.448 3.84-0.448 5.568-0.896 1.728-2.368 3.008-4.224 3.584l-236.736 76.16c-4.992 1.6-8.384 5.824-8.832 11.008-0.448 5.184 2.112 9.984 6.72 12.416l808.256 432.576c2.24 1.216 4.864 0.64 6.4-1.28 1.6-1.984 1.536-4.672-0.128-6.528-73.856-86.016-443.008-516.032-459.648-535.232-19.584-22.528-28.288-44.032-28.224-69.76L413.3184-116.928z"  horiz-adv-x="1025" />

    
    <glyph glyph-name="jiantou9" unicode="&#58891;" d="M944.083879 606.463698c14.264888-18.286482 15.462157-41.208541 2.670829-51.196009l-417.191704-325.421604c-2.885723-2.261507-12.156878-7.828292-13.732769-9.578146-15.544021-17.181311-37.893029-22.338774-49.947576-11.461029l-392.908648 354.309538c-12.054547 10.887978-9.271154 33.666774 6.272867 50.889017 15.544021 17.21201 37.893029 22.349007 49.988508 11.471262l357.584118-322.443783 408.258241 318.463122C907.910005 631.483534 929.84969 624.739946 944.083879 606.463698z"  horiz-adv-x="1024" />

    
    <glyph glyph-name="dongtai1" unicode="&#59047;" d="M510.941765 1.434523c-193.447243 0-350.835733 157.410875-350.835733 350.879304 0 193.459435 157.415472 350.828338 350.857718 350.828338 56.169717 0 131.805236-30.308851 159.895191-42.457014l-27.828133 76.436976c-4.001287 11.071893 1.732825 23.454498 12.811314 27.480368l1.841751 0.667547c11.055504 4.047256 23.418123-1.671267 27.446391-12.766744l46.657166-128.150314c4.001287-11.07689-1.733824-23.437509-12.811314-27.461381l-1.863736-0.667547c-0.130911-0.065556-0.282808-0.021585-0.402727-0.065556l-114.253336-65.978666c-10.199085-5.890007-23.391141-2.354803-29.278149 7.841683l-0.986331 1.714238c-5.91399 10.174502-2.40437 23.372154 7.822696 29.259562l80.9729 46.769091c-1.973662 0.340169-3.968309 0.596995-5.768089 1.433428 0 0-83.992853 39.160849-144.27778 39.160849-167.66932 0-304.069641-136.400121-304.069641-304.045057 0-167.701898 136.373139-304.113011 304.047656-304.113011 167.673917 0 304.093025 136.391127 304.093025 304.079034 0 25.109975-5.097544 51.698349-5.097544 51.698349-2.207503 11.570555 4.393022 25.749542 14.652066 31.535619l4.818733 2.676585c10.282029 5.784078 20.73694 1.092859 23.266225-10.433326 0 0 9.190769-41.988332 9.190769-75.449245C861.831862 158.845399 704.422985 1.434523 510.941765 1.434523zM627.495342 165.980561l-116.957503 63.146986-118.312984-60.562738 23.903793 130.828898-94.170353 93.853567 131.805236 17.632045 60.219971 118.56981 57.478829-119.855938 131.237621-20.586442-96.170596-91.771579L627.495342 165.980561zM585.509009 225.164235l-74.523273 40.278691-75.434256-38.605625 15.252059 83.399255-59.996123 59.788863 83.992853 11.245975 38.370984 75.578957 36.627167-76.374418 83.697053-13.1271-61.309232-58.501136L585.509009 225.164235z"  horiz-adv-x="1024" />

    
    <glyph glyph-name="wodexiaoxi" unicode="&#58885;" d="M937.344 171.52a22.784 22.784 0 0 1 22.912 22.72V645.184c0 18.176-5.824 35.008-15.424 48.896-0.448 0.64-0.512 1.344-0.96 1.92-0.832 1.024-1.856 1.536-2.752 2.368a86.72 86.72 0 0 1-68.032 33.024H150.912c-48.128 0-87.168-38.592-87.168-86.208v-522.304c0-47.616 39.04-86.272 87.168-86.272h722.112c48.128 0 87.168 38.656 87.168 86.272v71.872a22.784 22.784 0 0 1-22.912 22.528 22.784 22.784 0 0 1-22.912-22.528v-67.392a45.568 45.568 0 0 0-45.952-45.376H155.52a45.568 45.568 0 0 0-45.888 45.376V640.64c0 2.496 0.384 4.864 0.768 7.232l401.152-323.584 0.128-0.064A24.064 24.064 0 0 1 523.392 320c1.216-0.128 2.368-0.128 3.584-0.128s2.368 0 3.52 0.128a24.448 24.448 0 0 1 11.776 4.16l0.064 0.064 371.648 319.68c0.128-1.088 0.384-2.176 0.384-3.328v-446.528c0-12.416 10.304-22.528 22.976-22.528zM155.52 686.016h712.896c6.144 0 11.84-1.216 17.152-3.328L526.912 372.864 142.528 683.968a45.952 45.952 0 0 0 12.992 2.048z m0 0"  horiz-adv-x="1024" />

    
    <glyph glyph-name="money" unicode="&#58889;" d="M619.5 599l-107.5-122.9-107.5 122.9h-86l150.5-172h-129v-43h129v-86h-129v-43h129v-129h86v129h129v43h-129v86h129v43h-129l150.5 172zM512 832c-247.4 0-448-200.6-448-448s200.6-448 448-448 448 200.6 448 448-200.6 448-448 448zM512 0c-212.1 0-384 171.9-384 384s171.9 384 384 384 384-171.9 384-384-171.9-384-384-384z"  horiz-adv-x="1024" />

    
    <glyph glyph-name="nan" unicode="&#58902;" d="M908.353 448.549h81.028v415.451h-416.369v-81.71h276.86l-232.435-234.097c-61.75 49.103-139.645 78.577-223.955 78.577l-4.841-0.034c-96.518-1.269-186.775-40.055-254.131-109.199-67.348-69.151-103.743-160.388-102.473-256.906 2.587-196.647 164.642-356.631 361.25-356.631l4.841 0.034c96.525 1.263 186.783 40.035 254.137 109.185 67.361 69.143 103.749 160.388 102.48 256.899-1.088 83.398-30.933 160.132-79.853 220.937l233.468 234.144v-276.65zM594.222 69.75c-52.256-53.641-122.272-83.723-197.162-84.708l-3.781-0.021c-152.509 0-278.224 124.115-280.229 276.677-0.986 74.876 27.252 145.655 79.502 199.302 52.256 53.647 122.272 83.729 197.154 84.714l3.774 0.027c152.528 0 278.243-124.121 280.236-276.697 0.993-74.87-27.246-145.648-79.495-199.296z"  horiz-adv-x="1024" />

    
    <glyph glyph-name="nv" unicode="&#58948;" d="M855.729627 737.533959c-59.396769 58.262443-137.925351 90.355916-221.106837 90.355916-85.486263 0-165.539321-33.6035-225.39849-94.618669-59.049968-60.191519-91.143442-139.803852-90.334241-224.134114 0.6358-67.127524 22.115741-130.808721 61.188569-183.804135l-73.601129-74.995555-153.177337 150.287335a50.575037 50.575037 0 1 1-70.833952-72.199478l153.177338-150.287335-104.242377-106.250928a50.582262 50.582262 0 0 1 72.206703-70.841176l104.242376 106.243702 153.177338-150.287335a50.387187 50.387187 0 0 1 35.416976-14.471685 50.575037 50.575037 0 0 1 35.416976 86.678388l-153.177338 150.28011 73.514429 74.94498c53.002639-37.642278 116.192535-58.024017 182.388034-58.024017 85.486263 0 165.539321 33.596275 225.39849 94.618669 59.057193 60.198744 91.143442 139.803852 90.341466 224.134114-0.794751 84.337487-34.39825 163.306795-94.596994 222.371213z m-67.94395-375.66415c-40.684005-41.47153-95.08107-64.302547-153.191787-64.302547-56.542891 0-109.914006 21.805066-150.272885 61.41977-40.92243 40.134904-63.753447 93.802244-64.288097 151.125435-0.5491 57.323192 21.248741 111.416807 61.398095 152.332012 40.684005 41.47153 95.08107 64.302547 153.191787 64.302547 56.528441 0 109.899555-21.812291 150.272885-61.41977 40.90798-40.134904 63.738997-93.809469 64.288097-151.125436 0.5491-57.323192-21.248741-111.416807-61.398095-152.332011z"  horiz-adv-x="1024" />

    
    <glyph glyph-name="nan1" unicode="&#58947;" d="M922.344176 743.790814v0.050575c0 0.765851-0.0867 1.517251-0.130051 2.283101-0.036125 0.67915-0.04335 1.365526-0.108375 2.037452-0.0867 0.794751-0.2312 1.553376-0.36125 2.333676-0.07225 0.455175-0.122825 0.917576-0.209525 1.379976l-0.04335 0.296226-0.050575 0.281775c-0.15895 0.794751-0.397375 1.553376-0.599676 2.333677-0.15895 0.6069-0.289 1.228251-0.469625 1.820701-0.2601 0.816426-0.585225 1.618401-0.888676 2.420377l-0.27455 0.758625-0.166175 0.455176-0.13005 0.325125c-0.354025 0.830876-0.758626 1.625626-1.163226 2.427602-0.223975 0.455175-0.41905 0.917576-0.6647 1.358301-0.4335 0.801976-0.924801 1.553376-1.401651 2.319226-0.1445 0.223975-0.267325 0.4624-0.411826 0.671926-0.0867 0.13005-0.151725 0.267325-0.238425 0.397375l-0.1156 0.1734c-0.50575 0.751401-1.062076 1.445001-1.611176 2.153052-0.30345 0.39015-0.578 0.801976-0.888676 1.184901-0.556325 0.6647-1.163226 1.293276-1.755676 1.929076-0.354025 0.382925-0.67915 0.780301-1.040401 1.141551l-0.065025 0.065025-0.01445 0.021675-0.07225 0.0578c-0.527425 0.527425-1.098201 1.004276-1.668976 1.510026-0.426275 0.3757-0.823651 0.780301-1.271601 1.148776-0.599675 0.4913-1.249926 0.932026-1.878501 1.401651-0.484075 0.36125-0.953701 0.744176-1.452226 1.083751a5.086404 5.086404 0 0 0-0.332351 0.2023l-0.53465 0.310675a26.70362 26.70362 0 0 1-1.141551 0.693601c-0.5202 0.3179-1.025951 0.657475-1.567826 0.9537-0.67915 0.368475-1.394426 0.671925-2.095252 1.004276-0.56355 0.267325-1.112651 0.570775-1.690651 0.809201-0.151725 0.07225-0.325125 0.122825-0.4913 0.180625-0.18785 0.079475-0.39015 0.137275-0.578001 0.223975l-1.018725 0.368475c-0.628575 0.223975-1.242701 0.484075-1.892952 0.693601-0.643025 0.18785-1.307726 0.325125-1.965201 0.4913-0.729726 0.195075-1.445001 0.41905-2.189177 0.563551-0.151725 0.036125-0.310675 0.036125-0.4624 0.065025l-0.426275 0.07225c-0.527425 0.10115-1.069301 0.166175-1.618402 0.238425-0.599675 0.093925-1.184901 0.21675-1.784576 0.281775a42.772031 42.772031 0 0 1-4.428928 0.223975h-0.151725l-343.079377-1.235476a43.350032 43.350032 0 0 1 0.151726-86.700063h0.151725l238.417949 0.867-156.76094-157.895265c-53.710689 42.179581-121.170564 67.467099-194.150342 67.467099l-4.219403-0.021675c-174.093728-2.290327-313.85423-145.786157-311.563903-319.858209 2.261427-171.817851 143.849855-311.592803 315.631581-311.592803l4.219403 0.0289c84.330262 1.105426 163.18397 34.983476 222.031638 95.39897 58.854893 60.415494 90.644916 140.136203 89.532265 224.452014-0.881451 67.82835-23.553517 130.613646-61.159669 181.831708l157.61349 158.747816V400.581387a43.350032 43.350032 0 0 1 86.700064 0V743.653538v0.050575 0.086701zM577.198448 144.021449c-39.990404-41.06693-93.585494-64.085797-150.901461-64.844422l-2.890002-0.01445c-116.73441 0-212.957031 95.001595-214.495957 211.77213C207.357652 409.251393 302.352021 506.76729 420.668708 508.327891l2.890002 0.007225c116.741636 0 212.971481-94.99437 214.488732-211.779355 0.758626-57.301517-20.851365-111.474607-60.848994-152.534312z"  horiz-adv-x="1024" />

    
    <glyph glyph-name="dongtai2" unicode="&#58921;" d="M639.645429 19.501385H625.462604c-5.67313 0-8.509695-2.836565-8.509695-8.509695v-5.67313c0-56.731302-45.385042-102.116343-102.116344-102.116344s-102.116343 45.385042-102.116343 102.116344v5.67313c0 5.67313-2.836565 8.509695-8.509696 8.509695h-11.34626c-5.67313 0-8.509695-2.836565-8.509695-8.509695v-14.182826c2.836565-68.077562 62.404432-124.808864 130.481994-124.808864 70.914127 0 127.645429 53.894737 130.481995 124.808864v14.182826c2.836565 5.67313-2.836565 8.509695-5.673131 8.509695z m337.551247 51.058172c0 2.836565 0 8.509695-2.836565 11.34626-8.509695 73.750693-51.058172 136.155125-110.626039 178.703601v192.886427c0 144.66482-90.770083 275.146814-226.925208 329.041551-5.67313 62.404432-59.567867 113.462604-124.808864 113.462604s-119.135734-51.058172-124.808864-113.462604c-136.155125-51.058172-226.925208-181.540166-226.925208-329.041551v-192.886427c-59.567867-42.548476-102.116343-104.952909-110.626039-178.703601-2.836565-5.67313-2.836565-11.34626-2.836565-19.855956v-17.01939c0-5.67313 5.67313-11.34626 11.34626-11.34626h907.700832c5.67313 0 11.34626 5.67313 11.34626 11.34626v17.01939 8.509696z m-39.711911 14.182825v0c0-5.67313-5.67313-8.509695-8.509696-8.509695H97.861496c-5.67313-2.836565-11.34626 2.836565-11.346261 8.509695v14.182826c0 5.67313 0 11.34626 2.836566 17.01939 8.509695 65.240997 45.385042 82.260388 102.116343 119.135734v221.252078c0 133.31856 99.279778 252.454294 221.252078 300.6759 5.67313 56.731302 39.711911 110.626039 99.279778 110.626039s93.606648-53.894737 99.279778-110.626039c124.808864-45.385042 221.252078-167.357341 221.252078-300.6759v-221.252078c56.731302-36.875346 93.606648-53.894737 102.116343-119.135734 0-2.836565 0-19.855956 2.836566-31.202216 0-2.836565 0-2.836565 0 0v14.182826 5.67313-19.855956zM619.789474 561.285319c-8.509695 0-14.182825-5.67313-17.019391-11.346261-2.836565-8.509695 2.836565-17.019391 11.34626-17.01939 62.404432-5.67313 48.221607-85.096953 48.221607-133.31856v-14.182825c0-8.509695 5.67313-14.182825 14.182826-14.182826s14.182825 5.67313 14.182825 14.182826v14.182825c2.836565 39.711911 14.182825 150.33795-70.914127 161.684211z"  horiz-adv-x="1024" />

    
    <glyph glyph-name="nv1" unicode="&#59107;" d="M815.562249 527.79294c0 167.652348-135.909389 303.56276-303.562761 303.562761S208.436728 695.445288 208.436728 527.79294c0-151.34187 110.7555-276.800233 255.632121-299.782667v-67.687612H304.299029v-95.862301h159.76982v-127.816061h95.862302V64.46036h159.76982v95.862301H559.930127v67.687612c144.875598 22.982434 255.632121 148.440797 255.632122 299.782667z m-511.26322 0c0 114.708532 92.991927 207.700459 207.700459 207.700459s207.700459-92.991927 207.700459-207.700459-92.991927-207.700459-207.700459-207.700459-207.700459 92.991927-207.700459 207.700459z"  horiz-adv-x="1024" />

    
    <glyph glyph-name="ren3" unicode="&#58965;" d="M512-64c-254.784 0-384 59.904-384 178.112 0 84.416 133.12 139.648 265.856 158.336v17.536c-79.68 58.24-118.464 159.936-118.464 309.952C275.392 745.216 362.368 832 508.096 832h7.808c145.792 0 232.768-86.784 232.768-232.064 0-56.448 0-223.808-117.568-310.144l-0.384-17.408C763.2 253.568 896 198.4 896 114.112 896-4.096 766.784-64 512-64zM508.032 776c-80.256 0-175.872-29.952-175.872-172.8 0-137.344 34.56-225.92 105.536-270.72 8.96-5.696 14.464-15.872 14.464-26.88v-62.72a30.848 30.848 0 0 0-26.944-31.232c-145.728-15.232-242.368-71.232-242.368-101.568 0-97.6 179.008-118.08 329.152-118.08 150.208 0 329.152 20.48 329.152 118.08 0 30.336-96.64 86.4-242.368 101.568a30.912 30.912 0 0 0-26.88 31.936l1.28 62.72a31.744 31.744 0 0 0 14.4 26.176c71.168 44.928 104.32 130.944 104.32 270.72 0 142.848-95.68 172.8-175.936 172.8h-7.936z"  horiz-adv-x="1024" />

    
    <glyph glyph-name="ren4" unicode="&#59014;" d="M652.8 361.6C723.2 406.4 768 486.4 768 576c0 140.8-115.2 256-256 256S256 716.8 256 576c0-89.6 44.8-169.6 115.2-214.4C192 304 64 134.39999999999998 64-64h64c0 211.2 172.8 384 384 384s384-172.8 384-384h64c0 198.4-128 368-307.2 425.6zM512 384c-105.6 0-192 86.4-192 192s86.4 192 192 192 192-86.4 192-192-86.4-192-192-192z"  horiz-adv-x="1024" />

    
    <glyph glyph-name="rili" unicode="&#58625;" d="M896 448H128v-447.957333l477.738667-0.021334L896 0.0426670000000513V448z m0 42.666667V703.9573330000001C896 704 768 704 768 704V746.666667h128.042667A42.666667 42.666667 0 0 0 938.666667 703.9573330000001v-703.914666A42.624 42.624 0 0 0 896.064-42.66666699999996H127.936A42.666667 42.666667 0 0 0 85.333333 0.0426670000000513V703.9573330000001C85.333333 727.530667 104.256 746.666667 127.957333 746.666667H256v-42.666667l-128-0.042667V490.666667h768zM298.666667 810.666667h42.666666v-170.666667h-42.666666V810.666667z m384 0h42.666666v-170.666667h-42.666666V810.666667zM384 746.666667h256v-42.666667H384V746.666667z"  horiz-adv-x="1024" />

    
    <glyph glyph-name="rili1" unicode="&#58908;" d="M819.2 783.36h59.345455c28.113455 0 50.920727-22.900364 50.920727-51.2v-737.28c0-28.299636-22.807273-51.2-50.920727-51.2H145.454545a51.060364 51.060364 0 0 0-50.920727 51.2V732.16c0 28.299636 22.807273 51.2 50.920727 51.2h80.989091V844.8h-80.989091A112.314182 112.314182 0 0 1 33.466182 732.16v-737.28a112.314182 112.314182 0 0 1 111.988363-112.64h733.09091a112.314182 112.314182 0 0 1 111.988363 112.64V732.16a112.314182 112.314182 0 0 1-111.988363 112.64h-59.29891v-61.44z m-408.296727 0h224.069818V844.8H410.903273v-61.44zM64 506.88h896v-61.44H64zM256 290.909091m-46.545455 0a46.545455 46.545455 0 1 1 93.09091 0 46.545455 46.545455 0 1 1-93.09091 0ZM256 104.727273m-46.545455 0a46.545455 46.545455 0 1 1 93.09091 0 46.545455 46.545455 0 1 1-93.09091 0ZM535.272727 104.727273m-46.545454 0a46.545455 46.545455 0 1 1 93.090909 0 46.545455 46.545455 0 1 1-93.090909 0ZM535.272727 290.909091m-46.545454 0a46.545455 46.545455 0 1 1 93.090909 0 46.545455 46.545455 0 1 1-93.090909 0ZM768 290.909091m-46.545455 0a46.545455 46.545455 0 1 1 93.09091 0 46.545455 46.545455 0 1 1-93.09091 0ZM318.557091 896C335.406545 896 349.090909 882.315636 349.090909 865.466182v-164.212364a30.533818 30.533818 0 1 0-61.114182 0V865.466182c0 16.849455 13.684364 30.533818 30.580364 30.533818zM725.829818 896c16.849455 0 30.533818-13.684364 30.533818-30.533818v-164.212364a30.533818 30.533818 0 1 0-61.114181 0V865.466182c0 16.849455 13.684364 30.533818 30.580363 30.533818z"  horiz-adv-x="1024" />

    
    <glyph glyph-name="arrfill_d" unicode="&#58893;" d="M205.7729999999999 610.5659999999999l617.5329999999999 2.2737367544323206e-13c34.17400000000001 1.4210854715202004e-14 61.81600000000001-27.426999999999975 61.81500000000003-61.59999999999997 7.993605777301127e-15-15.89-6.0969999999999835-30.257999999999996-15.888999999999996-41.142l-305.38999999999976-407.4830000000001c-20.460999999999984-26.992000000000008-58.989999999999974-32.65300000000002-86.197-12.190000000000033-4.79 3.4849999999999977-8.926000000000002 7.622999999999996-12.191000000000004 12.190999999999995l-308.8810000000003 411.831c-20.23900000000001 26.992999999999988-14.798000000000027 65.73 12.409999999999982 85.97900000000001 11.104999999999995 8.490000000000006 23.944999999999993 12.410000000000014 36.785 12.410000000000018v0z"  horiz-adv-x="1024" />

    
    <glyph glyph-name="tubiaozhizuomoban-" unicode="&#58895;" d="M466.8416 707.1744zM585.4208 714.4448c1.1264-1.4336 2.4576-2.7648 3.4816-4.3008-1.1264 1.536-2.3552 2.8672-3.4816 4.3008zM566.272 731.136a71.68 71.68 0 0 0 15.872-12.8 71.68 71.68 0 0 1-15.872 12.8zM443.6992 661.1968l-38.5024-78.5408a73.3184 73.3184 0 0 0-3.7888-6.7584 70.7584 70.7584 0 0 1 3.7888 6.7584zM752.7424 719.36a74.1376 74.1376 0 0 0 19.0464-5.0176 74.1376 74.1376 0 0 1-19.0464 5.0176zM837.7344 525.0048l-129.4336 18.432a73.5232 73.5232 0 0 0-55.5008 40.0384l-55.5008 111.5136a125.44 125.44 0 0 0-206.848-133.12 73.4208 73.4208 0 0 0-40.448-20.48l-129.3312-18.432a73.5232 73.5232 0 0 1-40.3456-125.44l93.9008-90.9312a73.5232 73.5232 0 0 0 21.2992-65.024l-21.6064-129.024A73.5232 73.5232 0 0 1 380.8256 35.84l115.6096 61.44a73.5232 73.5232 0 0 0 68.4032 0l115.9168-60.5184a73.5232 73.5232 0 0 1 106.3936 77.824l-22.528 128.8192a73.5232 73.5232 0 0 0 20.48 65.1264l93.3888 91.5456a73.5232 73.5232 0 0 1-40.7552 124.928zM529.408 223.1296A78.9504 78.9504 0 0 0 450.56 302.08a18.3296 18.3296 0 1 0 36.7616 0 42.0864 42.0864 0 0 1 84.1728 0 18.3296 18.3296 0 1 0 36.7616 0 78.9504 78.9504 0 0 0-78.848-78.9504zM397.1072 569.856l2.6624 3.4816zM589.824 320.4096A18.3296 18.3296 0 0 1 571.4944 302.08a42.0864 42.0864 0 0 0-84.1728 0A18.3296 18.3296 0 1 1 450.56 302.08a78.848 78.848 0 0 1 157.696 0 18.3296 18.3296 0 0 1-18.432 18.3296zM597.2992 694.9888l-2.7648 5.5296a76.9024 76.9024 0 0 1-5.632 9.6256 76.8 76.8 0 0 0 5.632-9.6256zM466.8416 707.1744a76.1856 76.1856 0 0 1-4.096-7.0656l-19.0464-38.912 19.0464 38.912a76.288 76.288 0 0 0 4.096 7.0656zM399.36 573.3376l1.6384 2.56zM518.656 740.5568A72.192 72.192 0 0 1 470.016 711.68a72.192 72.192 0 0 0 48.64 28.8768zM582.144 718.336c1.1264-1.2288 2.1504-2.6624 3.1744-3.9936-1.024 1.4336-1.6384 2.8672-3.1744 3.9936zM390.4512 562.3808a73.1136 73.1136 0 0 1 6.656 7.4752 75.6736 75.6736 0 0 0-6.656-7.4752zM605.696 650.24a125.0304 125.0304 0 0 1-8.3968 44.9536l-2.7648 5.5296a76.8 76.8 0 0 1-5.632 9.6256c-1.1264 1.536-2.3552 2.8672-3.4816 4.3008s-2.048 2.7648-3.1744 3.9936a71.68 71.68 0 0 1-15.9744 12.4928 72.2944 72.2944 0 0 1-8.9088 4.4032 74.1376 74.1376 0 0 1-19.0464 5.0176 75.4688 75.4688 0 0 1-19.6608 0A72.192 72.192 0 0 1 470.016 711.68c-1.1264-1.536-2.1504-3.072-3.1744-4.7104a76.288 76.288 0 0 1-4.096-7.0656l-19.0464-38.912-38.5024-78.336a70.7584 70.7584 0 0 0-3.7888-6.7584l-1.6384-2.56-2.6624-3.4816a73.1136 73.1136 0 0 0-6.656-7.4752 125.44 125.44 0 0 1 215.04 87.6544zM605.696 650.24a125.0304 125.0304 0 0 1-8.3968 44.9536l-2.7648 5.5296a76.8 76.8 0 0 1-5.632 9.6256c-1.1264 1.536-2.3552 2.8672-3.4816 4.3008s-2.048 2.7648-3.1744 3.9936a71.68 71.68 0 0 1-15.9744 12.4928 72.2944 72.2944 0 0 1-8.9088 4.4032 74.1376 74.1376 0 0 1-19.0464 5.0176 75.4688 75.4688 0 0 1-19.6608 0A72.192 72.192 0 0 1 470.016 711.68c-1.1264-1.536-2.1504-3.072-3.1744-4.7104a76.288 76.288 0 0 1-4.096-7.0656l-19.0464-38.912-38.5024-78.336a70.7584 70.7584 0 0 0-3.7888-6.7584l-1.6384-2.56-2.6624-3.4816a73.1136 73.1136 0 0 0-6.656-7.4752 125.44 125.44 0 0 1 215.04 87.6544z"  horiz-adv-x="1024" />

    
    <glyph glyph-name="weibiaoti-" unicode="&#58896;" d="M935.563636 423.563636h-814.545454c-34.909091 0-62.836364 27.927273-62.836364 62.836364v93.090909c0 34.909091 27.927273 62.836364 62.836364 62.836364h814.545454c34.909091 0 62.836364-27.927273 62.836364-62.836364v-93.090909c0-34.909091-27.927273-62.836364-62.836364-62.836364z m-814.545454 174.545455c-9.309091 0-16.290909-6.981818-16.290909-16.290909v-93.090909c0-9.309091 6.981818-16.290909 16.290909-16.290909h814.545454c9.309091 0 16.290909 6.981818 16.290909 16.290909v93.090909c0 9.309091-6.981818 16.290909-16.290909 16.290909h-814.545454zM742.4-74.472727H302.545455c-100.072727 0-181.527273 81.454545-181.527273 181.527272V446.836364h46.545454v-339.781819c0-74.472727 60.509091-134.981818 134.981819-134.981818h439.854545c74.472727 0 134.981818 60.509091 134.981818 134.981818V446.836364h46.545455v-339.781819c0-100.072727-81.454545-181.527273-181.527273-181.527272zM551.563636 0h-46.545454V642.327273c2.327273 4.654545 37.236364 132.654545 128 181.527272 41.890909 20.945455 86.109091 23.272727 134.981818 9.309091 2.327273 0 48.872727-16.290909 62.836364-65.163636 13.963636-44.218182-4.654545-97.745455-51.2-160.581818l-37.236364 27.927273c37.236364 48.872727 53.527273 90.763636 44.218182 118.690909-6.981818 25.6-32.581818 34.909091-32.581818 34.909091-34.909091 11.636364-67.490909 9.309091-97.745455-4.654546-67.490909-34.909091-97.745455-132.654545-104.727273-148.945454v-635.345455zM549.236364-51.2h-46.545455V633.018182c-4.654545 18.618182-37.236364 114.036364-104.727273 148.945454-30.254545 16.290909-60.509091 16.290909-97.745454 4.654546 0 0-25.6-9.309091-32.581818-34.909091-9.309091-27.927273 6.981818-69.818182 44.218181-118.690909l-37.236363-27.927273c-46.545455 62.836364-65.163636 116.363636-51.2 160.581818 13.963636 48.872727 60.509091 65.163636 62.836363 65.163637 48.872727 16.290909 93.090909 13.963636 134.981819-9.309091 90.763636-48.872727 125.672727-176.872727 128-181.527273v-691.2z"  horiz-adv-x="1024" />

    
    <glyph glyph-name="tongzhi" unicode="&#58983;" d="M892.1 91L781.9 274.7V438c0 71.8-28.1 139.5-79.3 190.6-36.2 36.2-80.7 60.8-129 72.2v22.7c0 34-27.6 61.6-61.6 61.6s-61.6-27.6-61.6-61.6v-22.7c-48.4-11.3-92.9-36-129-72.2-51.1-51.1-79.3-118.8-79.3-190.6v-163.3L131.9 91h257.7c7.6-60.8 59.5-108 122.3-108s114.8 47.2 122.3 108h257.9zM496.4 723.4c0 8.6 7 15.6 15.6 15.6s15.6-7 15.6-15.6v-16c-5.2 0.3-10.4 0.5-15.6 0.5s-10.4-0.2-15.6-0.5v16zM288.1 261.9V438c0 123.4 100.4 223.9 223.9 223.9 123.4 0 223.9-100.4 223.9-223.9v-176.1L810.8 137H213.2l74.9 124.9zM512 29c-37.4 0-68.6 26.7-75.8 62h151.5c-7.1-35.3-38.3-62-75.7-62z"  horiz-adv-x="1024" />

    
    <glyph glyph-name="wenjianjia1" unicode="&#58910;" d="M858.9-9.9h-698c-53.4 0-96.8 43.4-96.8 96.8V529c0 13.8 11.2 25 25 25s25-11.2 25-25v-442.1c0-25.8 21-46.8 46.8-46.8h698c25.8 0 46.8 21 46.8 46.8V529.1c0 25.8-21 46.8-46.8 46.8H471.7c-13.8 0-25 11.2-25 25v83.7c0 25.8-21 46.8-46.8 46.8h-239c-25.8 0-46.8-21-46.8-46.8v-41.5c0-13.8-11.2-25-25-25s-25 11.2-25 25v41.5c0 53.4 43.4 96.8 96.8 96.8h238.9c53.4 0 96.8-43.4 96.8-96.8v-58.7h362.3c53.4 0 96.8-43.4 96.8-96.8v-442.2c0.1-53.4-43.4-96.8-96.8-96.8zM810.9 410.1h-709c-13.8 0-25 11.2-25 25s11.2 25 25 25h709c13.8 0 25-11.2 25-25s-11.2-25-25-25z"  horiz-adv-x="1024" />

    
    <glyph glyph-name="xiajiantou" unicode="&#60269;" d="M573.056 144l308.8 404.608A76.8 76.8 0 0 1 820.736 672H203.232a76.8 76.8 0 0 1-61.056-123.392l308.8-404.608a76.8 76.8 0 0 1 122.08 0z"  horiz-adv-x="1024" />

    
    <glyph glyph-name="dianzan1" unicode="&#58933;" d="M222.5 458h-74.1c-46.4 0-84-37.6-84-84v-286.3c0-46.4 37.6-84 84-84h74.1V458zM896.6 458H691c-23.7 0-38.1 26.3-25.1 46.1 34.7 52.9 65.4 113.9 71.7 181.1 10.2 109.4-136.2 148.2-190.3 33.2-9.9-21.1-23.4-57.9-37-97.4-32-93.2-117.3-156.9-214.8-162.5v-455H736c55.7 0 105.2 35.4 123.1 88.1L955.9 375c13.9 40.7-16.3 83-59.3 83z"  horiz-adv-x="1024" />

    
    <glyph glyph-name="erji1" unicode="&#58692;" d="M835 410c-1 171.1-145.5 310-323 310S189.9 581.1 189 410c-69 0-125-54-125-120.7v-120.7C64 102 120 48 189 48h62.5V410h-0.1c0.9 137.8 117.3 249.7 260.4 249.7 143.6 0 260.5-112.8 260.5-251.4V48H835c69.1 0 125 54 125 120.7V289.3c0 66.6-56 120.7-125 120.7z"  horiz-adv-x="1024" />

    
    <glyph glyph-name="ren5" unicode="&#58884;" d="M880.864 191.654c-56.813 25.397-141.118 90.818-265.945 113.298 31.924 34.36 56.084 88.097 80.937 151.754 14.403 36.893 11.935 68.343 11.935 113.121 0 33.073 6.193 86.156-1.97 115.329-27.533 98.59-97.1 125.79-178.61 125.79-81.577 0-151.229-27.328-178.71-126.087-8.097-29.083-1.888-82.044-1.888-115.037 0-44.875-2.422-76.432 12.019-113.383 25.044-63.984 48.854-117.644 80.655-151.86-123.826-22.89-207.498-87.822-263.95-113.138C58.523 139.055 57.95 81.704 57.95 81.704v-97.42l940.724 0.112v97.308s-0.547 57.548-117.809 109.95z"  horiz-adv-x="1024" />

    
    <glyph glyph-name="tubiao-" unicode="&#58890;" d="M561.434483-50.317241c-233.048276 0-423.724138 188.910345-423.724138 423.724138s188.910345 423.724138 423.724138 423.724137 423.724138-190.675862 423.724138-423.724137-190.675862-423.724138-423.724138-423.724138z m0 810.372413c-213.627586 0-388.413793-174.786207-388.413793-388.413793s174.786207-388.413793 388.413793-388.413793 388.413793 174.786207 388.413793 388.413793c-1.765517 215.393103-174.786207 388.413793-388.413793 388.413793zM563.2 387.531034L376.055172 576.441379c-7.062069 7.062069-7.062069 17.655172 0 24.717242s17.655172 7.062069 24.717242 0l162.427586-162.427587 155.365517 162.427587c7.062069 7.062069 17.655172 7.062069 24.717242 0 7.062069-7.062069 7.062069-17.655172 0-24.717242L563.2 387.531034zM764.468966 378.703448h-406.068966c-8.827586 0-14.124138 7.062069-14.124138 14.124138s7.062069 14.124138 14.124138 14.124138h406.068966c8.827586 0 14.124138-7.062069 14.124137-14.124138s-5.296552-14.124138-14.124137-14.124138zM764.468966 263.944828h-406.068966c-8.827586 0-14.124138 7.062069-14.124138 14.124138s7.062069 14.124138 14.124138 14.124137h406.068966c8.827586 0 14.124138-7.062069 14.124137-14.124137s-5.296552-14.124138-14.124137-14.124138zM563.2 92.689655c-8.827586 0-14.124138 7.062069-14.124138 14.124138V414.013793c0 8.827586 7.062069 14.124138 14.124138 14.124138s14.124138-7.062069 14.124138-14.124138v-305.434483c0-8.827586-5.296552-15.889655-14.124138-15.889655z"  horiz-adv-x="1129" />

    
    <glyph glyph-name="erji2" unicode="&#59159;" d="M959.281 243.075l-27.034-153.304c-5.599-31.752-35.875-52.953-67.628-47.356l-38.327 6.76c-42.333 7.463-70.602 47.833-63.135 90.169l20.272 114.979c7.467 42.336 47.838 70.602 90.171 63.14l38.327-6.76c2.625-0.46 5.055-1.335 7.523-2.121C904.2 520.37 727.981 687.563 512.306 687.563c-215.614 0-391.802-167.103-407.135-378.806 2.282 0.698 4.497 1.523 6.906 1.946l38.33 6.76c42.333 7.463 82.701-20.804 90.169-63.14l20.274-114.979c7.465-42.336-20.804-82.706-63.137-90.169l-38.327-6.76c-31.752-5.597-62.031 15.604-67.628 47.356L64.725 243.075c-1.136 6.436-0.907 12.746 0.022 18.863v16.988c0 247.179 200.38 447.555 447.559 447.555s447.562-200.375 447.562-447.555v-21.77c0.311-4.624 0.255-9.316-0.587-14.081zM130.08 96.526c1.868-10.583 11.962-17.652 22.546-15.784l38.325 6.757c21.167 3.734 35.301 23.918 31.57 45.087l-20.274 114.979c-3.734 21.169-23.918 35.301-45.087 31.57l-38.325-6.757c-10.583-1.868-17.652-11.958-15.784-22.543l27.029-153.309z m775.088 175.852l-38.325 6.757c-21.167 3.731-41.355-10.401-45.084-31.57l-20.276-114.979c-3.731-21.169 10.403-41.353 31.57-45.087l38.327-6.757c10.583-1.868 20.678 5.2 22.543 15.784l27.031 153.309c1.868 10.586-5.2 20.675-15.786 22.543z m-168.299 248.78l-27.518-27.518c-51.973 47.765-121.087 77.168-197.24 77.168-71.096 0-136.209-25.47-186.841-67.718l-27.518 27.522c57.755 49.236 132.514 79.113 214.359 79.113 86.9 0.001 165.729-33.768 224.758-88.567z"  horiz-adv-x="1024" />

    
    <glyph glyph-name="wenjianjia2" unicode="&#59292;" d="M907.6 490.5v-334.7c0-29.2-10.5-54.2-31.4-75.1-20.9-20.9-46-31.4-75.1-31.4H222.9c-29.2 0-54.2 10.5-75.1 31.4s-31.4 46-31.4 75.1V612.2c0 29.2 10.5 54.2 31.4 75.1s46 31.4 75.1 31.4H375c29.2 0 54.2-10.5 75.1-31.4s31.4-46 31.4-75.1V597H801c29.2 0 54.2-10.5 75.1-31.4 21-20.9 31.5-45.9 31.5-75.1z"  horiz-adv-x="1024" />

    
    <glyph glyph-name="dongtaitixing" unicode="&#58912;" d="M828.3 200.5c-60.4 21.2-59.1 73.3-59.1 73.3V420.3c0 99-65 183.9-157.5 219.8v47.6c0 60.1-44.2 89-98.7 89s-98.7-29-98.7-89v-47.6c-92.5-35.9-157.5-120.8-157.5-219.8v-146.6c0-53.5-59.1-73.3-59.1-73.3s-19.7-2.6-19.7-36.7c0-34 39.4-36.6 39.4-36.6h19.7s245.5-0.5 414.8-0.5c84.7 0 150.3 0.1 156.6 0.5 19.1 1.1 39.4 11.4 39.4 36.6 0.1 25.3-19.6 36.8-19.6 36.8zM473.4 687.7c0 10.5 0 30 39.6 30s39.6-19.5 39.6-30v-32.1c-12.9 1.9-26.1 2.8-39.6 2.8s-26.7-1-39.6-2.8v32.1z m178.5-501.9c-125.5 0-292.9 0.3-371 0.4 19.8 21.3 35 50.2 35 87.5V420.3c0 98.8 88.4 179.1 197.1 179.1 108.7 0 197.1-80.3 197.1-179.1v-146.6c-0.5-21.9 7.5-57.8 34.9-87.9h-93.1zM611.4 108.20000000000005c-15.5 5.2-32.2-3.2-37.4-18.6-2.5-7.4-20.5-21.9-50.8-21.9-30.3 0-48.3 14.5-50.8 21.9-5.2 15.4-22 23.7-37.4 18.5-15.4-5.2-23.7-22-18.5-37.5 12.1-35.6 55.3-61.9 106.8-61.9 51.6 0 94.8 26.5 106.8 62.3 5.2 15.3-3.2 32-18.7 37.2z"  horiz-adv-x="1024" />

    
    <glyph glyph-name="faxian" unicode="&#58939;" d="M513 797.7c-228.4 0-413.5-185.2-413.5-413.6 0-228.4 185.2-413.5 413.5-413.5 228.4 0 413.6 185.2 413.6 413.5 0 228.5-185.2 413.6-413.6 413.6z m0-768c-195.4 0-354.4 159-354.4 354.4 0 195.5 159 354.5 354.4 354.5 195.5 0 354.4-159 354.4-354.5 0-195.3-158.9-354.4-354.4-354.4zM315.8 167.29999999999995l335.6 78.5 78.5 335.6-335.5-78.5-78.6-335.6z m127.7 286.4l207.2 48.5L602.2 295 395 246.5l48.5 207.2zM522.8 423.6c-27.2 0-49.2-22-49.2-49.3 0-27.2 22-49.2 49.2-49.2 27.2 0 49.2 22 49.2 49.2 0.1 27.3-22 49.3-49.2 49.3z"  horiz-adv-x="1024" />

    
    <glyph glyph-name="wenjianjia3" unicode="&#58991;" d="M669.866667 629.333333L554.666667 810.666667H87.466667v-134.4h-85.333334V896h599.466667l138.666667-221.866667zM1026.133333-128H2.133333V682.666667h1024v-810.666667z m-938.666666 85.333333h853.333333V597.333333h-853.333333v-640z"  horiz-adv-x="1026" />

    
    <glyph glyph-name="zuojiantou" unicode="&#59045;" d="M691-109.9L261.1 320c-17.3 17.3-26.7 40.2-26.7 64.7s9.5 47.4 26.7 64.7L691 879.2c22.3 22.3 58.5 22.3 80.8 0 22.3-22.3 22.3-58.5 0-80.8L358.1 384.6l413.8-413.8c22.3-22.3 22.3-58.5 0-80.8-11.2-11.2-25.8-16.7-40.5-16.7-14.6 0.1-29.2 5.6-40.4 16.8z m0 0"  horiz-adv-x="1024" />

    
    <glyph glyph-name="erji3" unicode="&#59177;" d="M981.333333 337.066667c-17.066667 25.6-38.4 42.666667-64 55.466666 0 110.933333-42.666667 217.6-119.466666 294.4C725.333333 768 622.933333 810.666667 516.266667 810.666667S307.2 768 230.4 686.933333c-76.8-76.8-115.2-183.466667-119.466667-294.4-25.6-12.8-46.933333-29.866667-64-55.466666-29.866667-42.666667-46.933333-98.133333-46.933333-153.6 0-59.733333 17.066667-110.933333 46.933333-153.6 34.133333-46.933333 81.066667-72.533333 128-72.533334 38.4 0 89.6 17.066667 119.466667 51.2 4.266667 4.266667 8.533333 12.8 8.533333 25.6v298.666667c0 8.533333-4.266667 17.066667-8.533333 25.6-29.866667 25.6-76.8 42.666667-110.933333 46.933333 8.533333 183.466667 153.6 332.8 332.8 332.8s324.266667-145.066667 332.8-332.8c-34.133333-4.266667-81.066667-21.333333-106.666667-46.933333-8.533333-8.533333-12.8-17.066667-12.8-29.866667v-298.666666c0-8.533333 4.266667-17.066667 8.533333-25.6 29.866667-29.866667 81.066667-51.2 119.466667-51.2 46.933333 0 89.6 25.6 123.733333 68.266666 29.866667 42.666667 46.933333 98.133333 46.933334 153.6 0 64-17.066667 119.466667-46.933334 162.133334z m0 0"  horiz-adv-x="1028" />

    
    <glyph glyph-name="ren-copy" unicode="&#58938;" d="M512 419.84c131.072 0 236.544 106.496 236.544 236.544S643.072 893.952 512 893.952 275.456 787.456 275.456 656.384 380.928 419.84 512 419.84z m0 412.672c97.28 0 175.104-78.848 175.104-175.104S609.28 481.28 512 481.28s-175.104 78.848-175.104 175.104S414.72 832.512 512 832.512zM512 353.28C265.216 353.28 64.512 152.57600000000002 64.512-95.23199999999997c0-17.408 13.312-30.72 30.72-30.72s30.72 13.312 30.72 30.72C125.952 117.75999999999999 299.008 291.84000000000003 512 291.84000000000003c212.992 0 386.048-174.08 386.048-387.072 0-17.408 13.312-30.72 30.72-30.72s30.72 13.312 30.72 30.72C959.488 152.57600000000002 758.784 353.28 512 353.28z"  horiz-adv-x="1024" />

    
    <glyph glyph-name="qian2" unicode="&#58966;" d="M854.22844 386.750059c0-20.72716-1.432989-38.178917-4.247789-52.35527H573.004382v-124.36296h276.976269c2.814799-13.203969 4.247788-28.250351 4.247789-45.241504 0-20.778338-1.432989-38.178917-4.247789-52.304092H573.004382v-221.857378a480.818931 480.818931 0 0 0-73.696569-5.783134 474.575194 474.575194 0 0 0-73.594212 5.783134v221.857378H160.303599c-3.889541 11.361554-5.834312 27.329144-5.834312 48.056304 0 8.546755 0.511782 16.939975 1.432989 25.48673 1.023563 8.495577 2.456552 16.479372 4.401323 23.951384h265.46118v124.414138H160.303599c-3.889541 11.361554-5.834312 27.329144-5.834312 48.107482 0 8.444398 0.511782 16.888797 1.432989 25.48673a185.264984 185.264984 0 0 0 4.401323 24.053741h207.732202L102.57462 889.882673A652.470521 652.470521 0 0 0 186.353288 895.56345c13.408681 0 27.380322-0.511782 41.812567-1.38181 14.432245-0.921207 27.380322-2.303018 38.997768-4.196611l236.545513-426.825958 232.348903 426.825958c12.436296 1.893592 25.230839 3.275403 38.230095 4.196611a568.384784 568.384784 0 0 0 79.991484 0 394.071928 394.071928 0 0 0 37.5136-4.196611L630.73336 432.09392h219.247291c2.814799-13.306325 4.247788-28.403886 4.247789-45.343861z"  horiz-adv-x="1024" />

    
    <glyph glyph-name="tubiaozhizuo-" unicode="&#58886;" d="M938.15 246l-379.3 363.3a70.28 70.28 0 0 1-93.69 0L85.85 246c-25.14-24.08-25.14-63.11 0-87.14s65.87-24 91 0L512 479.87l335.12-321c25.19-24 66-24 91.06 0s25.1 63.02-0.03 87.13z"  horiz-adv-x="1024" />

    
    <glyph glyph-name="rili2" unicode="&#58943;" d="M763.159273-36.491636h-512c-89.832727 0-162.909091 73.076364-162.909091 162.909091v465.454545c0 89.832727 73.076364 162.909091 162.909091 162.909091h512c89.832727 0 162.909091-73.076364 162.909091-162.909091v-465.454545c0-89.832727-73.122909-162.909091-162.909091-162.909091z m-512 744.727272a116.503273 116.503273 0 0 1-116.363637-116.363636v-465.454545c0-64.186182 52.224-116.363636 116.363637-116.363637h512c64.186182 0 116.363636 52.177455 116.363636 116.363637v465.454545c0 64.139636-52.177455 116.363636-116.363636 116.363636h-512zM134.795636 522.053818h744.727273v-46.545454h-744.727273zM320.977455 335.872h372.363636v-46.545455h-372.363636zM320.977455 242.781091h372.363636v-46.545455h-372.363636zM320.977455 801.326545h46.545454v-186.181818h-46.545454zM646.795636 801.326545h46.545455v-186.181818h-46.545455z"  horiz-adv-x="1024" />

    
    <glyph glyph-name="xin" unicode="&#58638;" d="M1066.676944 794.974109A351.539301 351.539301 0 0 1 584.680751 805.571448a351.539301 351.539301 0 0 1-481.996194-10.597339 344.230792 344.230792 0 0 1 0-490.035554l403.795143-400.140888a109.627641 109.627641 0 0 1 156.402101 0l403.795143 399.775463a344.230792 344.230792 0 0 1 0 490.400979z m-52.255842-438.510563L610.625959-43.67734199999995a36.542547 36.542547 0 0 0-51.890417 0L154.574973 356.46354599999995a271.876549 271.876549 0 0 0 0 386.985572A277.357931 277.357931 0 0 0 534.982887 749.661351L584.680751 706.906571 634.013189 749.661351a277.357931 277.357931 0 0 0 380.407913-8.03936 271.876549 271.876549 0 0 0 0-385.158445zM338.018559 713.118804A155.305824 155.305824 0 0 1 182.712735 557.8129799999999a18.271273 18.271273 0 0 1 36.542546 0A118.763277 118.763277 0 0 0 338.018559 676.5762569999999a18.271273 18.271273 0 0 1 0 36.542547z"  horiz-adv-x="1170" />

    
    <glyph glyph-name="duigou_huabanfuben" unicode="&#58975;" d="M384 85.33333300000004a42.666667 42.666667 0 0 0-30.293333 12.373334l-170.666667 170.666666a42.666667 42.666667 0 0 0 60.586667 60.586667L384 188.15999999999997l439.04 439.466667a42.666667 42.666667 0 1 0 60.586667-60.586667l-469.333334-469.333333A42.666667 42.666667 0 0 0 384 85.33333300000004z"  horiz-adv-x="1024" />

    
    <glyph glyph-name="youjiantou" unicode="&#58897;" d="M288.791 830.417L735.21 384 288.79-62.417z"  horiz-adv-x="1024" />

    
    <glyph glyph-name="shangjiantou" unicode="&#58626;" d="M573.056 624l308.8-404.608A76.8 76.8 0 0 0 820.736 96H203.232a76.8 76.8 0 0 0-61.056 123.392L450.976 624a76.8 76.8 0 0 0 122.08 0z"  horiz-adv-x="1024" />

    
    <glyph glyph-name="zhuye" unicode="&#58894;" d="M920.9 402.63L528.6 792.94c-4.52 4.52-10.62 6.52-16.56 5.98h-0.08c-5.93 0.54-12.03-1.45-16.56-5.98L103.1 402.63c-8.09-8.05-8.13-21.21-0.04-29.34 4.03-4.07 9.38-6.1 14.69-6.1s10.58 2.03 14.65 6.06l55.73 55.44V68.6c0-54.9 44.7-99.6 99.6-99.6h444.55c54.95 0 99.6 44.7 99.6 99.6V432.68l59.72-59.43c4.07-4.07 9.34-6.06 14.65-6.06s10.67 2.03 14.69 6.1c8.09 8.14 8.05 21.29-0.04 29.34z m-130.52 68.1V68.6c0-32.04-26.06-58.1-58.1-58.1H287.73c-32.04 0-58.1 26.06-58.1 58.1V469.99l282.36 281 278.63-277.26c-0.16-0.96-0.24-2-0.24-3zM599.89 192.24H420.15c-11.46 0-20.75 9.29-20.75 20.75s9.29 20.75 20.75 20.75h179.74c11.46 0 20.75-9.29 20.75-20.75s-9.29-20.75-20.75-20.75zM920.41 402.61L528.58 792.45c-4.52 4.52-10.61 6.51-16.54 5.97h-0.08c-5.93 0.54-12.02-1.45-16.54-5.97L103.59 402.61c-8.08-8.04-8.12-21.18-0.04-29.3 4.02-4.06 9.37-6.09 14.67-6.09s10.57 2.03 14.63 6.05l55.67 55.38v-359.66c0-54.84 44.64-99.48 99.48-99.48h444.01c54.88 0 99.48 44.64 99.48 99.48V432.62l59.65-59.36c4.06-4.06 9.33-6.05 14.63-6.05 5.31 0 10.65 2.03 14.67 6.09 8.09 8.13 8.05 21.27-0.03 29.31z m-130.36 68.02v-401.65c0-32-26.03-58.03-58.03-58.03H288.01c-32 0-58.03 26.03-58.03 58.03v400.9L512 750.54l278.29-276.93c-0.16-0.95-0.24-1.99-0.24-2.98zM599.79 192.47H420.26c-11.45 0-20.72 9.28-20.72 20.72s9.28 20.72 20.72 20.72h179.53c11.45 0 20.72-9.28 20.72-20.72s-9.28-20.72-20.72-20.72zM919.91 402.59L528.56 791.95c-4.51 4.51-10.6 6.5-16.52 5.96h-0.08c-5.92 0.54-12.01-1.45-16.52-5.96L104.09 402.59c-8.07-8.03-8.11-21.16-0.04-29.27 4.02-4.06 9.36-6.09 14.66-6.09s10.56 2.03 14.61 6.04l55.6 55.31v-359.23c0-54.77 44.59-99.36 99.36-99.36h443.47c54.81 0 99.36 44.59 99.36 99.36v363.2l59.57-59.28c4.06-4.06 9.32-6.04 14.61-6.04 5.3 0 10.64 2.03 14.66 6.09 8.08 8.11 8.04 21.24-0.04 29.27z m-130.2 67.93v-401.16c0-31.96-26-57.96-57.96-57.96H288.28c-31.96 0-57.96 26-57.96 57.96V469.78L512 750.1l277.96-276.59c-0.17-0.96-0.25-1.99-0.25-2.99zM599.68 192.7H420.37c-11.43 0-20.7 9.27-20.7 20.7s9.27 20.7 20.7 20.7h179.31c11.43 0 20.7-9.27 20.7-20.7s-9.27-20.7-20.7-20.7zM919.42 402.56l-390.88 388.9c-4.51 4.51-10.59 6.49-16.5 5.95h-0.08c-5.91 0.54-11.99-1.45-16.5-5.95l-390.88-388.9c-8.06-8.02-8.1-21.13-0.04-29.23 4.01-4.05 9.34-6.08 14.64-6.08s10.54 2.03 14.6 6.04l55.53 55.24v-358.79c0-54.71 44.53-99.24 99.24-99.24h442.94c54.75 0 99.24 44.53 99.24 99.24V432.5l59.5-59.21c4.05-4.05 9.3-6.04 14.6-6.04s10.63 2.03 14.64 6.08c8.05 8.11 8.01 21.21-0.05 29.23z m-130.05 67.86v-400.68c0-31.92-25.97-57.89-57.89-57.89H288.55c-31.92 0-57.89 25.97-57.89 57.89V469.68L512 749.66 789.62 473.4c-0.16-0.95-0.25-1.99-0.25-2.98zM599.57 192.93H420.48c-11.42 0-20.67 9.26-20.67 20.67s9.26 20.67 20.67 20.67h179.09c11.42 0 20.67-9.26 20.67-20.67s-9.25-20.67-20.67-20.67z"  horiz-adv-x="1024" />

    
    <glyph glyph-name="jiahao2" unicode="&#59169;" d="M867.7 472.2H599.8V740.1c0 49.3-40 89.3-89.3 89.3s-89.3-40-89.3-89.3v-267.9H153.3c-49.3 0-89.3-40-89.3-89.3s40-89.3 89.3-89.3h267.9v-267.9c0-49.3 40-89.3 89.3-89.3s89.3 40 89.3 89.3V293.6h267.9c49.3 0 89.3 40 89.3 89.3s-40 89.3-89.3 89.3z"  horiz-adv-x="1024" />

    
    <glyph glyph-name="liwu1" unicode="&#59063;" d="M844 633H642.7c21.4 17.1 35.3 43.1 35.3 72.6 0 51.6-41.8 93.4-93.4 93.4-29.5 0-55.5-14-72.6-35.3C494.9 785 468.9 799 439.4 799c-51.6 0-93.4-41.8-93.4-93.4 0-29.5 14-55.5 35.3-72.6H180c-45.8 0-83-37.2-83-83v-41.5c0-45.6 37.3-83 83-83h20.8v-332c0-68.5 56-124.5 124.5-124.5h373.5c68.5 0 124.5 56 124.5 124.5v332H844c45.7 0 83 37.4 83 83V550c0 45.8-37.2 83-83 83z m-332 14l-0.3 0.2c0.1 0.1 0.2 0.3 0.3 0.4 0.1-0.1 0.2-0.3 0.3-0.4l-0.3-0.2z m72.6 110.5c28.6 0 51.9-23.3 51.9-51.9 0-28.6-23.3-51.9-51.9-51.9s-51.9 23.3-51.9 51.9c0.1 28.6 23.3 51.9 51.9 51.9z m-145.2 0c28.6 0 51.9-23.3 51.9-51.9 0-28.6-23.3-51.9-51.9-51.9s-51.9 23.3-51.9 51.9c0 28.6 23.3 51.9 51.9 51.9zM180 467c-22.9 0-41.5 18.6-41.5 41.5V550c0 22.9 18.6 41.5 41.5 41.5h235.8l-94.7-54.7c-9.9-5.7-13.3-18.4-7.6-28.3 5.7-9.9 18.4-13.3 28.3-7.6l149.3 86.2V467H180z m145.3-456.5c-45.8 0-83 37.2-83 83v332h249v-415h-166z m456.5 83c0-45.8-37.2-83-83-83h-166v415h249v-332z m103.7 415c0-22.9-18.6-41.5-41.5-41.5H532.8V587.1l149.3-86.2c9.9-5.7 22.6-2.3 28.3 7.6 5.7 9.9 2.3 22.6-7.6 28.3l-94.7 54.7H844c22.9 0 41.5-18.6 41.5-41.5v-41.5z"  horiz-adv-x="1024" />

    
    <glyph glyph-name="rili3" unicode="&#59161;" d="M882.6-64h-740c-28.2-0.6-51.7 21.4-52.9 49.5V694.2c0 28.6 23.2 51.8 51.8 51.8h137.8V814.9c0 9.4 7.6 17.1 17.1 17.1h51.8c9.4 0.3 17.3-7.1 17.6-16.5V746h292.6V814.9c0 9.4 7.6 17.1 17.1 17.1h51.8c9.4 0.3 17.3-7.1 17.6-16.5V746h137.8c28.6 0 51.8-23.2 51.8-51.8v-708.7c-1.3-27.7-24.2-49.5-51.9-49.5z m0 740c-0.3 9.3-7.8 16.8-17.1 17.1H744.8v-51.8c0-9.4-7.6-17.1-17.1-17.1h-51.8c-9.4-0.3-17.3 7.1-17.6 16.5v53.5H365.7v-51.8c0-9.4-7.6-17.1-17.1-17.1h-51.8c-9.4-0.3-17.3 7.1-17.6 16.5v52.4H158.5c-9.3-0.3-16.8-7.8-17.1-17.1v-122.4h740V677.2l1.2-1.2z m0-170.8h-740v-499.8c0-9.4 7.6-17.1 17.1-17.1h705.9c9.4 0 17.1 7.6 17.1 17.1l-0.1 499.8zM779 91.4h-68.9c-9.4 0-17.1 7.6-17.1 17.1v68.9c0 9.4 7.6 17.1 17.1 17.1H779c9.4 0 17.1-7.6 17.1-17.1v-68.9c0.3-9.4-7.1-17.3-16.5-17.6h-0.6v0.5z m0 189.6h-68.9c-9.4 0-17.1 7.6-17.1 17.1V367c0 9.4 7.6 17.1 17.1 17.1H779c9.4 0 17.1-7.6 17.1-17.1v-69c0.3-9.4-7.1-17.3-16.5-17.6h-0.6v0.6zM555.3 91.4h-68.9c-9.7 0-17.6 7.9-17.6 17.6v68.3c0.3 9.5 8.1 17.1 17.6 17.1h68.9c9.3-0.3 16.8-7.8 17.1-17.1v-68.9c0-9.5-7.6-17.3-17.1-17.6v0.6z m0 189.6h-68.9c-9.7 0-17.6 7.9-17.6 17.6v68.3c0.3 9.5 8.1 17.1 17.6 17.1h68.9c9.3-0.3 16.8-7.8 17.1-17.1V298c0-9.5-7.6-17.3-17.1-17.6v0.6zM331 90.8h-68.9c-9.4 0-17.1 7.6-17.1 17.1v69.5c0 9.4 7.6 17.1 17.1 17.1H331c9.4 0 17.1-7.6 17.1-17.1v-68.9c0.3-9.4-7.1-17.3-16.5-17.6-0.2-0.1-0.4-0.1-0.6-0.1z m0 189.6h-68.9c-9.4 0-17.1 7.6-17.1 17.1V367c0 9.4 7.6 17.1 17.1 17.1H331c9.4 0 17.1-7.6 17.1-17.1v-69c0.3-9.4-7.1-17.3-16.5-17.6h-0.6z"  horiz-adv-x="1024" />

    
    <glyph glyph-name="xinaixin" unicode="&#58949;" d="M1066.667 793.6C930.133 921.6 725.333 930.133 588.8 802.133 443.733 930.133 238.933 921.6 102.4 793.6c-136.533-136.533-136.533-349.867 0-486.4l401.067-401.067c42.666-42.666 110.933-42.666 153.6 0L1058.133 307.2c145.067 128 145.067 349.867 8.534 486.4z m-51.2-435.2L614.4-42.667c-17.067-17.066-34.133-17.066-51.2 0L153.6 358.4c-110.933 102.4-110.933 281.6 0 384 102.4 102.4 273.067 102.4 384 8.533l51.2-42.666 51.2 42.666c110.933 102.4 273.067 93.867 384-8.533 93.867-110.933 93.867-281.6-8.533-384z"  horiz-adv-x="1169" />

    
    <glyph glyph-name="bang_zhu_zhong_xin" unicode="&#58881;" d="M513.1-126.7c-68.9 0-135.8 13.5-198.7 40.1C253.6-60.9 199-24 152.1 22.8S68.4 124.3 42.7 185.1c-26.6 63-40.1 129.8-40.1 198.7 0 68.9 13.5 135.8 40.1 198.7 25.7 60.8 62.5 115.4 109.4 162.3S253.6 828.5 314.4 854.2c63 26.6 129.8 40.1 198.7 40.1 68.9 0 135.8-13.5 198.7-40.1 60.8-25.7 115.4-62.5 162.3-109.4s83.7-101.5 109.4-162.3c26.6-63 40.1-129.8 40.1-198.7 0-68.9-13.5-135.8-40.1-198.7-25.7-60.8-62.5-115.4-109.4-162.3s-101.5-83.7-162.3-109.4c-62.9-26.6-129.8-40.1-198.7-40.1z m0 961.1c-248.4 0-450.5-202.1-450.5-450.5s202.1-450.5 450.5-450.5 450.5 202.1 450.5 450.5S761.5 834.4 513.1 834.4zM513.3 353.4s-30-0.3-30 30 30 30 30 30c66.9 0 121.1 55.8 118.5 123.3-2.4 61.5-52.3 111.4-113.8 113.8-59.3 2.3-109.5-39.1-120.9-94.6C394.3 542 382 532 367.8 532c-18.9 0-33.2 17.3-29.4 35.8 16.7 81.5 89 143 175.4 142.7 97.9-0.2 177.9-80.2 178.1-178.1 0.3-98.6-79.9-179-178.6-179zM513.3 244c-16.6 0-30 13.4-30 30V383.4h60V274c0-16.6-13.4-30-30-30zM512.3 130.7m-58.5 0a58.5 58.5 0 1 1 117 0 58.5 58.5 0 1 1-117 0Z"  horiz-adv-x="1024" />

    
    <glyph glyph-name="fa_bu_gong_dan" unicode="&#58882;" d="M322.5 126.2c-17.9 0-35.4 7.1-48.2 19.9-13.6 13.6-20.2 32.4-18 51.6l15.1 131.2c1.7 14.9 8.5 28.9 19 39.4L783 862.2c20.3 20.4 47.3 31.6 76.1 31.6h0.1c28.7 0 55.7-11.2 76-31.4l56.3-56.2c42-41.9 42.1-110.2 0.2-152.2L503.4 164.6c-10.2-10.2-23.6-16.9-37.9-18.9l-133.6-18.8c-3.1-0.5-6.2-0.7-9.4-0.7zM859.3 833.9c-0.1 0-0.1 0 0 0-12.8 0-24.7-5-33.7-14L333 325.9c-1.1-1.1-1.7-2.5-1.9-4L316 190.7c-0.1-0.8 0.2-1.6 0.8-2.2 1.8-1.8 4.3-2.6 6.8-2.3L457.2 205c1.4 0.2 2.8 0.9 3.8 1.9l488.4 489.5c18.5 18.6 18.5 48.8-0.1 67.4L893 820c-9.1 8.9-21 13.9-33.7 13.9zM367.365 378.656l147.597-147.264-42.378-42.474-147.597 147.264zM784.167 806.945l159.278-158.94-42.384-42.474-159.278 158.94zM926.8-127.8H98.2c-53.5 0-97 43.5-97 97V797.8c0 53.5 43.5 97 97 97h577.4v-60H98.2c-20.4 0-37-16.6-37-37v-828.6c0-20.4 16.6-37 37-37h828.6c20.4 0 37 16.6 37 37V542.9h60v-573.7c0-53.5-43.5-97-97-97z"  horiz-adv-x="1024" />

    
    <glyph glyph-name="hai_bao" unicode="&#58888;" d="M886.2-44.7H139.3C63.6-44.7 2 16.9 2 92.6v583C2 751.3 63.6 812.9 139.3 812.9h746.9c75.7 0 137.3-61.6 137.3-137.3v-583c0-75.7-61.6-137.3-137.3-137.3zM139.3 752.9c-42.6 0-77.3-34.7-77.3-77.3v-583c0-42.6 34.7-77.3 77.3-77.3h746.9c42.6 0 77.3 34.7 77.3 77.3v583c0 42.6-34.7 77.3-77.3 77.3H139.3zM255.9 561.8m-87.6 0a87.6 87.6 0 1 1 175.2 0 87.6 87.6 0 1 1-175.2 0ZM194.5 147.9c-16.3 6.5-23.6 25.3-16 41 8.2 17 20.1 39.6 35.3 63.2 42.8 66.8 89.5 107.9 138.6 122.2 65.2 19 104.6-6 136.2-26.1 27.1-17.2 48.5-30.8 87.9-24.6 6.3 1 13 10.3 17.5 17.9 9 15.2 17 36.6 25.4 59.3 15.5 41.4 33 88.4 65 117.8 25.7 23.6 64.4 31.6 115.2 23.7 11.2-1.7 21.7-4 30.9-6.4 17.4-4.5 27-23.1 20.5-39.9-5.5-14.1-20.7-21.9-35.3-18.2-31.2 8-72.9 12.8-90.7-3.5-21.4-19.6-35.6-57.7-49.3-94.5-19.8-52.9-40.2-107.7-89.8-115.5-61.8-9.7-99.3 14.1-129.4 33.2-28.9 18.4-48.1 30.6-87.2 19.1-34.1-10-70.2-43.2-104.3-96.2-14-21.4-25-42.2-32.5-57.7-6.8-14.1-23.4-20.6-38-14.8z"  horiz-adv-x="1024" />

    
    <glyph glyph-name="tui_chu_xi_tong" unicode="&#58898;" d="M511.987792-127.99988a469.714768 469.714768 0 0 0-345.660194 788.078339 30.117644 30.117644 0 0 0 44.011916 0.291137 30.117644 30.117644 0 0 0 0.291137-41.090505C140.627208 543.543257 102.38784 446.052445 102.38784 341.835359c0-225.882326 183.717625-409.599952 409.599952-409.599951s409.599952 183.717625 409.599952 409.599951c0 103.705086-37.908074 200.78429-107.319203 276.44985a30.117644 30.117644 0 0 0 0.421647 41.090505 30.117644 30.117644 0 0 0 44.011916-0.431686A469.704729 469.704729 0 0 0 511.987792-127.99988zM481.870149 896m30.117643 0l0 0q30.117644 0 30.117644-30.117644l0-569.223462q0-30.117644-30.117644-30.117643l0 0q-30.117644 0-30.117643 30.117643l0 569.223462q0 30.117644 30.117643 30.117644Z"  horiz-adv-x="1024" />

    
    <glyph glyph-name="wo_de_gong_dan" unicode="&#58899;" d="M909.057148-128h-794.114296c-44.33938 0-80.290228 35.950848-80.290229 80.290228v777.137508c0 44.33938 35.950848 80.290228 80.290229 80.290228h120.834796c16.577336 0 29.95904-13.381705 29.95904-29.959041s-13.381705-29.95904-29.95904-29.95904h-120.834796c-11.184708 0-20.372147-9.087576-20.372148-20.372147v-777.237371c0-11.184708 9.087576-20.372147 20.372148-20.372148h794.21416c11.184708 0 20.372147 9.087576 20.372147 20.372148v777.237371c0 11.184708-9.087576 20.372147-20.372147 20.372147h-119.336844c-16.577336 0-29.95904 13.381705-29.959041 29.95904s13.381705 29.95904 29.959041 29.959041h119.336844c44.33938 0 80.290228-35.950848 80.290228-80.290228v-777.237371c-0.099863-44.239516-36.050712-80.190365-80.390092-80.190365zM638.826604 686.686171h-252.654574c-44.239516 0-80.290228 36.050712-80.290228 80.290228V815.709772c0 44.239516 36.050712 80.290228 80.290228 80.290228h252.654574c44.239516 0 80.290228-36.050712 80.290228-80.290228v-48.633509c0-44.33938-36.050712-80.390092-80.290228-80.390092z m-252.654574 149.395748c-11.184708 0-20.372147-9.187439-20.372147-20.372147v-48.733373c0-11.184708 9.187439-20.372147 20.372147-20.372147h252.654574c11.184708 0 20.372147 9.187439 20.372148 20.472011V815.709772c0 11.184708-9.187439 20.372147-20.372148 20.372147h-252.654574zM717.419154 481.366881h-394.760289c-16.577336 0-29.95904 13.381705-29.959041 29.959041s13.381705 29.95904 29.959041 29.95904h394.760289c16.577336 0 29.95904-13.381705 29.95904-29.95904s-13.381705-29.95904-29.95904-29.959041zM591.890774 281.440218h-269.231909c-16.577336 0-29.95904 13.381705-29.959041 29.959041s13.381705 29.95904 29.959041 29.95904h269.231909c16.577336 0 29.95904-13.381705 29.959041-29.95904s-13.381705-29.95904-29.959041-29.959041zM591.890774 90.700995h-269.231909c-16.577336 0-29.95904 13.381705-29.959041 29.95904s13.381705 29.95904 29.959041 29.95904h269.231909c16.577336 0 29.95904-13.381705 29.959041-29.95904s-13.381705-29.95904-29.959041-29.95904z"  horiz-adv-x="1024" />

    
    <glyph glyph-name="xiao_cheng_xu_guan_li" unicode="&#58901;" d="M511.994976-127.989951A512.125607 512.125607 0 0 0 312.701595 855.755459a512.125607 512.125607 0 0 0 398.59681-943.500869 508.910063 508.910063 0 0 0-199.303429-40.244541z m0 963.658309C262.931004 835.668358 60.291448 633.03885 60.291448 383.96483s202.639556-451.663333 451.703528-451.663334 451.713576 202.629508 451.713576 451.703528S761.068996 835.708552 511.994976 835.708552zM714.875698 299.627143a30.055287 30.055287 0 0 0 10.440469 36.627055 122.140425 122.140425 0 1 1-181.638035 52.252588l-55.377695-23.845268a182.421824 182.421824 0 0 0 95.461459 239.678603c92.396644 39.772258 199.916393-3.014572 239.678603-95.46146 34.908748-81.102046 6.189922-173.840341-63.858692-222.224228a30.145724 30.145724 0 0 0-44.706109 12.97271zM375.655915 135.604259c-71.164006 0-138.921545 41.882459-168.293528 111.45879-34.47666 81.644669-4.763024 174.583936 66.169864 222.294568a29.382032 29.382032 0 0 0 43.450036-12.952612l0.602915-1.436947a29.532761 29.532761 0 0 0-10.912752-35.943751 122.150473 122.150473 0 1 1 181.226044-53.498611l55.538472 23.453373c39.12915-92.667955-4.421373-199.886247-97.089328-239.015397a181.457161 181.457161 0 0 0-70.691723-14.359413z"  horiz-adv-x="1024" />

    
    <glyph glyph-name="ying_yong_lie_biao" unicode="&#58903;" d="M386.1 411.3h-289C43.9 411.3 0.6 454.6 0.6 507.8v289C0.6 850 43.9 893.3 97.1 893.3h289c53.2 0 96.5-43.3 96.5-96.5v-289c0.1-53.2-43.2-96.5-96.5-96.5zM97.1 833.4C77 833.4 60.6 817 60.6 796.9v-289c0-20.1 16.4-36.5 36.5-36.5h289c20.1 0 36.5 16.4 36.5 36.5v289c0 20.1-16.4 36.5-36.5 36.5h-289zM926.7 411.8h-289c-53.2 0-96.5 43.3-96.5 96.5v289c0 53.2 43.3 96.5 96.5 96.5h289c53.2 0 96.5-43.3 96.5-96.5v-289c0-53.2-43.3-96.5-96.5-96.5z m-289 422c-20.1 0-36.5-16.4-36.5-36.5v-289c0-20.1 16.4-36.5 36.5-36.5h289c20.1 0 36.5 16.4 36.5 36.5v289c0 20.1-16.4 36.5-36.5 36.5h-289zM386.8-128h-289c-53.2 0-96.5 43.3-96.5 96.5v289c0 53.2 43.3 96.5 96.5 96.5h289c53.2 0 96.5-43.3 96.5-96.5v-289c0-53.2-43.3-96.5-96.5-96.5z m-289 422.1c-20.1 0-36.5-16.4-36.5-36.5v-289c0-20.1 16.4-36.5 36.5-36.5h289c20.1 0 36.5 16.4 36.5 36.5v289c0 20.1-16.4 36.5-36.5 36.5h-289zM927.4-127.6h-289c-53.2 0-96.5 43.3-96.5 96.5V258c0 53.2 43.3 96.5 96.5 96.5h289c53.2 0 96.5-43.3 96.5-96.5v-289c0-53.3-43.3-96.6-96.5-96.6z m-289 422.1c-20.1 0-36.5-16.4-36.5-36.5v-289c0-20.1 16.4-36.5 36.5-36.5h289c20.1 0 36.5 16.4 36.5 36.5V258c0 20.1-16.4 36.5-36.5 36.5h-289z"  horiz-adv-x="1024" />

    
    <glyph glyph-name="duan_xin_qun_fa" unicode="&#58907;" d="M551.310937 312.459583A291.595461 291.595461 0 0 0 345.113161 810.263303a291.608041 291.608041 0 1 0 412.395551-412.395551 289.687484 289.687484 0 0 0-206.197775-85.408169z m0 520.322039c-126.115168 0-228.716095-102.600927-228.716095-228.716095s102.600927-228.705611 228.716095-228.705611 228.716095 102.57996 228.716094 228.705611S677.426104 832.781622 551.310937 832.781622zM152.176873-121.426915h-62.900334a452.536447 452.536447 0 0 0 37.05878 180.031237 462.202131 462.202131 0 0 0 100.514732 146.767444 467.559143 467.559143 0 0 0 328.654241 135.235716v-62.900333c-222.394611 0-403.327419-179.045798-403.327419-399.134064zM62.900333 109.081839H0a262.378256 262.378256 0 0 0 25.202067 112.01501 291.43821 291.43821 0 0 0 66.506619 90.366812c56.7361 52.532262 132.572935 82.661521 208.053335 82.661521v-62.900333C173.583953 331.266782 62.900333 227.386882 62.900333 109.081839zM299.709604 360.389637a229.6596 229.6596 0 1 0 0 459.308716v-62.900334c-91.93932 0-166.748783-74.809463-166.748783-166.748783s74.798979-166.759267 166.748783-166.759266zM1028.305129-128h-485.380904a44.030233 44.030233 0 0 0-44.030233 44.030233v355.386882a44.030233 44.030233 0 0 0 44.030233 44.030234h485.380904a44.030233 44.030233 0 0 0 44.030234-44.030234v-355.386882a44.030233 44.030233 0 0 0-44.030234-44.030233z m-466.510804 62.900333h447.640704v317.646682h-447.640704zM793.089334 62.797677a82.661521 82.661521 0 0 0-26.868926 4.444957l-0.366919 0.125801-261.83312 93.711013 21.197413 59.231147 261.560552-93.63763a19.918439 19.918439 0 0 1 12.884084 0.073384l249.05387 93.386028 22.078016-58.895678-249.682872-93.616663a82.923606 82.923606 0 0 0-28.022098-4.822359z"  horiz-adv-x="1072" />

    
    <glyph glyph-name="ji_chu_pei_zhi" unicode="&#58911;" d="M343.574719-128l-231.014321 141.306166 70.791521 105.806576-74.717242 132.802086L6.002298 252.577355l0.286766 259.56232h112.827386l77.130028 117.494741-68.685279 101.257883L349.873671 891.342533l79.038501-123.249829 154.902806-1.651373 92.813133 129.538892 216.952923-148.890618-84.615595-120.065743 82.07426-114.775414h126.928337l-0.088996-261.164251-116.47623 0.237323-65.916508-128.352277 78.524301-106.736092-212.760214-142.206016-79.038502 113.717349-210.288098 0.306542z m-147.33813 159.669045l126.829453-77.584896 55.009531 93.356998 275.176206-0.425204 63.454281-91.290309 112.728501 75.340215-63.503722 86.336189 99.290077 193.319492 93.337222-0.187881 0.059331 142.393897h-98.044131l-124.377114 173.839216 74.28215 105.411037-119.482324 82.005041-76.932258-107.388731-217.81322 2.304013-62.445657 97.440935-124.762763-90.06414 58.579267-86.346077-116.496007-177.369398H65.560523l-0.158215-141.266612 78.118874-0.504312 109.465308-194.634658zM508.336324 166.982801a220.087567 220.087567 0 1 0 155.604886 64.462904A218.604297 218.604297 0 0 0 508.336324 166.982801z m0 380.814679c-88.640201 0-160.746888-72.106687-160.746888-160.746889S419.696123 226.313592 508.336324 226.313592s160.737 72.106687 160.736999 160.736999S596.966636 547.79748 508.336324 547.79748z"  horiz-adv-x="1024" />

    
    <glyph glyph-name="ke_shi_hua_bian_ji" unicode="&#58913;" d="M322.5 126.2c-17.9 0-35.4 7.1-48.2 19.9-13.6 13.6-20.2 32.4-18 51.6l15.1 131.2c1.7 14.9 8.5 28.9 19 39.4L783 862.2c20.3 20.4 47.3 31.6 76.1 31.6h0.1c28.7 0 55.7-11.2 76-31.4l56.3-56.2c42-41.9 42.1-110.2 0.2-152.2L503.4 164.6c-10.2-10.2-23.6-16.9-37.9-18.9l-133.6-18.8c-3.1-0.5-6.2-0.7-9.4-0.7zM859.3 833.9c-0.1 0-0.1 0 0 0-12.8 0-24.7-5-33.7-14L333 325.9c-1.1-1.1-1.7-2.5-1.9-4L316 190.7c-0.1-0.8 0.2-1.6 0.8-2.2 1.8-1.8 4.3-2.6 6.8-2.3L457.2 205c1.4 0.2 2.8 0.9 3.8 1.9l488.4 489.5c18.5 18.6 18.5 48.8-0.1 67.4L893 820c-9.1 8.9-21 13.9-33.7 13.9zM367.365 378.656l147.597-147.264-42.378-42.474-147.597 147.264zM784.167 806.945l159.278-158.94-42.384-42.474-159.278 158.94zM926.8-127.8H98.2c-53.5 0-97 43.5-97 97V797.8c0 53.5 43.5 97 97 97h577.4v-60H98.2c-20.4 0-37-16.6-37-37v-828.6c0-20.4 16.6-37 37-37h828.6c20.4 0 37 16.6 37 37V542.9h60v-573.7c0-53.5-43.5-97-97-97z"  horiz-adv-x="1024" />

    
    <glyph glyph-name="tong_ji_fen_xi" unicode="&#58914;" d="M1022.601762-98.149014c0-16.572478-13.477618-29.950262-30.050096-29.850427L81.864048-125.902923c-44.126719 0.099834-80.067032 36.040148-80.067032 80.166867L1.098176 865.051396c0 16.572478 13.377783 29.950262 29.950262 29.950262s29.950262-13.377783 29.950261-29.950262l0.69884-910.687618c0-11.181431 9.084913-20.366178 20.366178-20.366178l910.687618-2.096518c16.572478-0.099834 29.950262-13.477618 29.850427-30.050096zM645.52797 262.252467l-240.600434 219.834919L215.142712 291.004718c-11.680602-11.780436-30.649101-11.780436-42.329703-0.099835-11.780436 11.680602-11.780436 30.649101-0.099834 42.329703l230.317511 231.71519 240.201097-219.435583 255.974902 263.262799c11.580768 11.88027 30.449433 12.079939 42.329703 0.599005 11.88027-11.580768 12.079939-30.449433 0.599005-42.329703L645.52797 262.252467z"  horiz-adv-x="1024" />

    
    <glyph glyph-name="xiao_cheng_xu_fa_bu" unicode="&#58915;" d="M874.346146-115.512195L525.886439 108.968585l32.468293 50.35083 270.136195-174.030049 117.685073 804.614244-807.71122-397.112195 202.30244-102.999415-27.173464-53.447805L4.49561 393.690537 1022.001951 893.902049zM461.948878-128h-59.941463V178.500683L942.87922 826.667707l46.055024-38.362536L461.948878 156.721951z"  horiz-adv-x="1024" />

    
    </font>
</defs>
</svg>
